solid esp32 room sensor CAM AIR
facet normal 1.0 -0.0 -0.0
  outer loop
    vertex 95.30210541253558 37.00000000000002 0.0
    vertex 95.30210541253558 32.00000000000002 1.9999999999999998
    vertex 95.30210541253558 32.00000000000002 0.0
  endloop
endfacet
facet normal 1.0 -0.0 -0.0
  outer loop
    vertex 95.30210541253558 32.00000000000002 1.9999999999999998
    vertex 95.30210541253558 37.00000000000002 0.0
    vertex 95.30210541253558 37.00000000000002 1.9999999999999998
  endloop
endfacet
facet normal -0.13052619222005185 -0.9914448613738105 0.0
  outer loop
    vertex 112.89817308750753 41.65925826289071 1.9999999999999998
    vertex 110.30998263648233 42.00000000000002 0.0
    vertex 112.89817308750753 41.65925826289071 0.0
  endloop
endfacet
facet normal -0.13052619222005185 -0.9914448613738105 0.0
  outer loop
    vertex 110.30998263648233 42.00000000000002 0.0
    vertex 112.89817308750753 41.65925826289071 1.9999999999999998
    vertex 110.30998263648233 42.00000000000002 1.9999999999999998
  endloop
endfacet
facet normal -0.6087614290087197 -0.7933533402912362 0.0
  outer loop
    vertex 117.38105044834779 39.071067811865504 1.9999999999999998
    vertex 115.30998263648232 40.66025403784441 0.0
    vertex 117.38105044834779 39.071067811865504 0.0
  endloop
endfacet
facet normal -0.6087614290087197 -0.7933533402912362 0.0
  outer loop
    vertex 115.30998263648232 40.66025403784441 0.0
    vertex 117.38105044834779 39.071067811865504 1.9999999999999998
    vertex 115.30998263648232 40.66025403784441 1.9999999999999998
  endloop
endfacet
facet normal -0.38268343236509034 -0.9238795325112867 0.0
  outer loop
    vertex 115.30998263648232 40.66025403784441 1.9999999999999998
    vertex 112.89817308750753 41.65925826289071 0.0
    vertex 115.30998263648232 40.66025403784441 0.0
  endloop
endfacet
facet normal -0.38268343236509034 -0.9238795325112867 0.0
  outer loop
    vertex 112.89817308750753 41.65925826289071 0.0
    vertex 115.30998263648232 40.66025403784441 1.9999999999999998
    vertex 112.89817308750753 41.65925826289071 1.9999999999999998
  endloop
endfacet
facet normal 0.6087614290087182 -0.793353340291237 0.0
  outer loop
    vertex 105.30998263648233 40.66025403784441 1.9999999999999998
    vertex 103.23891482461684 39.07106781186549 0.0
    vertex 105.30998263648233 40.66025403784441 0.0
  endloop
endfacet
facet normal 0.6087614290087182 -0.793353340291237 0.0
  outer loop
    vertex 103.23891482461684 39.07106781186549 0.0
    vertex 105.30998263648233 40.66025403784441 1.9999999999999998
    vertex 103.23891482461684 39.07106781186549 1.9999999999999998
  endloop
endfacet
facet normal 0.0 -1.0 0.0
  outer loop
    vertex 125.30998263648232 37.00000000000002 1.9999999999999991
    vertex 118.97023667432671 37.00000000000002 0.0
    vertex 125.30998263648232 37.00000000000002 -7.049916206369744e-16
  endloop
endfacet
facet normal 0.0 -1.0 0.0
  outer loop
    vertex 118.97023667432671 37.00000000000002 0.0
    vertex 125.30998263648232 37.00000000000002 1.9999999999999991
    vertex 118.97023667432671 37.00000000000002 1.9999999999999998
  endloop
endfacet
facet normal 1.0 -0.0 -0.0
  outer loop
    vertex 107.80998263648233 22.329131243968497 -1.4099832412739487e-15
    vertex 107.80998263648233 19.0 1.9999999999999962
    vertex 107.80998263648233 19.0 -3.524958103184872e-15
  endloop
endfacet
facet normal 1.0 -0.0 -0.0
  outer loop
    vertex 107.80998263648233 19.0 1.9999999999999962
    vertex 107.80998263648233 22.329131243968497 -1.4099832412739487e-15
    vertex 107.80998263648233 22.329131243968497 1.999999999999998
  endloop
endfacet
facet normal -0.0 1.0 -0.0
  outer loop
    vertex 107.80998263648233 19.0 1.9999999999999962
    vertex 112.80998263648232 19.0 -1.4099832412739487e-15
    vertex 107.80998263648233 19.0 -3.524958103184872e-15
  endloop
endfacet
facet normal -0.0 1.0 -0.0
  outer loop
    vertex 112.80998263648232 19.0 -1.4099832412739487e-15
    vertex 107.80998263648233 19.0 1.9999999999999962
    vertex 112.80998263648232 19.0 1.999999999999998
  endloop
endfacet
facet normal -1.0 0.0 0.0
  outer loop
    vertex 125.30998263648232 37.00000000000002 1.9999999999999991
    vertex 125.30998263648232 32.00000000000002 -1.4099832412739487e-15
    vertex 125.30998263648232 32.00000000000002 1.999999999999998
  endloop
endfacet
facet normal -1.0 0.0 0.0
  outer loop
    vertex 125.30998263648232 32.00000000000002 -1.4099832412739487e-15
    vertex 125.30998263648232 37.00000000000002 1.9999999999999991
    vertex 125.30998263648232 37.00000000000002 -7.049916206369744e-16
  endloop
endfacet
facet normal 0.0 -1.0 0.0
  outer loop
    vertex 101.64972859863795 37.00000000000002 1.9999999999999998
    vertex 95.30210541253558 37.00000000000002 0.0
    vertex 101.64972859863795 37.00000000000002 0.0
  endloop
endfacet
facet normal 0.0 -1.0 0.0
  outer loop
    vertex 95.30210541253558 37.00000000000002 0.0
    vertex 101.64972859863795 37.00000000000002 1.9999999999999998
    vertex 95.30210541253558 37.00000000000002 1.9999999999999998
  endloop
endfacet
facet normal 0.7933533402912385 -0.6087614290087162 -0.0
  outer loop
    vertex 103.23891482461684 39.07106781186549 0.0
    vertex 101.64972859863795 37.00000000000002 1.9999999999999998
    vertex 101.64972859863795 37.00000000000002 0.0
  endloop
endfacet
facet normal 0.7933533402912385 -0.6087614290087162 -0.0
  outer loop
    vertex 101.64972859863795 37.00000000000002 1.9999999999999998
    vertex 103.23891482461684 39.07106781186549 0.0
    vertex 103.23891482461684 39.07106781186549 1.9999999999999998
  endloop
endfacet
facet normal -1.0 0.0 0.0
  outer loop
    vertex 112.80998263648232 22.329131243968497 1.9999999999999991
    vertex 112.80998263648232 19.0 -1.4099832412739487e-15
    vertex 112.80998263648232 19.0 1.999999999999998
  endloop
endfacet
facet normal -1.0 0.0 0.0
  outer loop
    vertex 112.80998263648232 19.0 -1.4099832412739487e-15
    vertex 112.80998263648232 22.329131243968497 1.9999999999999991
    vertex 112.80998263648232 22.329131243968497 -7.049916206369744e-16
  endloop
endfacet
facet normal 0.13052619222005188 -0.9914448613738105 0.0
  outer loop
    vertex 110.30998263648233 42.00000000000002 1.9999999999999998
    vertex 107.72179218545712 41.65925826289071 0.0
    vertex 110.30998263648233 42.00000000000002 0.0
  endloop
endfacet
facet normal 0.13052619222005188 -0.9914448613738105 0.0
  outer loop
    vertex 107.72179218545712 41.65925826289071 0.0
    vertex 110.30998263648233 42.00000000000002 1.9999999999999998
    vertex 107.72179218545712 41.65925826289071 1.9999999999999998
  endloop
endfacet
facet normal -0.7933533402912362 -0.6087614290087197 0.0
  outer loop
    vertex 117.38105044834779 39.071067811865504 1.9999999999999998
    vertex 118.97023667432671 37.00000000000002 0.0
    vertex 118.97023667432671 37.00000000000002 1.9999999999999998
  endloop
endfacet
facet normal -0.7933533402912362 -0.6087614290087197 0.0
  outer loop
    vertex 118.97023667432671 37.00000000000002 0.0
    vertex 117.38105044834779 39.071067811865504 1.9999999999999998
    vertex 117.38105044834779 39.071067811865504 0.0
  endloop
endfacet
facet normal 0.38268343236509034 -0.9238795325112867 0.0
  outer loop
    vertex 107.72179218545712 41.65925826289071 1.9999999999999998
    vertex 105.30998263648233 40.66025403784441 0.0
    vertex 107.72179218545712 41.65925826289071 0.0
  endloop
endfacet
facet normal 0.38268343236509034 -0.9238795325112867 0.0
  outer loop
    vertex 105.30998263648233 40.66025403784441 0.0
    vertex 107.72179218545712 41.65925826289071 1.9999999999999998
    vertex 105.30998263648233 40.66025403784441 1.9999999999999998
  endloop
endfacet
facet normal 0.0 0.0 -1.0
  outer loop
    vertex 77.30998263648232 60.0 -1.9999999999999998
    vertex 78.30998263648232 58.99999999999999 -1.9999999999999998
    vertex 77.30998263648232 2.0 -1.9999999999999998
  endloop
endfacet
facet normal 0.0 0.0 -1.0
  outer loop
    vertex 78.30998263648232 58.99999999999999 -1.9999999999999998
    vertex 77.30998263648232 60.0 -1.9999999999999998
    vertex 137.30998263648232 60.0 -1.9999999999999998
  endloop
endfacet
facet normal 0.0 0.0 -1.0
  outer loop
    vertex 78.30998263648232 58.99999999999999 -1.9999999999999998
    vertex 137.30998263648232 60.0 -1.9999999999999998
    vertex 93.80998263648232 58.99999999999999 -1.9999999999999998
  endloop
endfacet
facet normal 0.0 0.0 -1.0
  outer loop
    vertex 93.80998263648232 58.99999999999999 -1.9999999999999998
    vertex 137.30998263648232 60.0 -1.9999999999999998
    vertex 94.80998263648232 58.99999999999999 -1.9999999999999998
  endloop
endfacet
facet normal 0.0 0.0 -1.0
  outer loop
    vertex 94.80998263648232 58.99999999999999 -1.9999999999999998
    vertex 137.30998263648232 60.0 -1.9999999999999998
    vertex 136.30998263648232 58.99999999999999 -1.9999999999999998
  endloop
endfacet
facet normal 0.0 0.0 -1.0
  outer loop
    vertex 136.30998263648232 58.99999999999999 -1.9999999999999998
    vertex 137.30998263648232 60.0 -1.9999999999999998
    vertex 136.30998263648232 3.0000000000000004 -1.9999999999999998
  endloop
endfacet
facet normal 0.0 0.0 -1.0
  outer loop
    vertex 77.30998263648232 2.0 -1.9999999999999998
    vertex 78.30998263648232 3.0000000000000004 -1.9999999999999998
    vertex 137.30998263648232 2.0 -1.9999999999999998
  endloop
endfacet
facet normal 0.0 0.0 -1.0
  outer loop
    vertex 78.30998263648232 3.0000000000000004 -1.9999999999999998
    vertex 77.30998263648232 2.0 -1.9999999999999998
    vertex 78.30998263648232 58.99999999999999 -1.9999999999999998
  endloop
endfacet
facet normal 0.0 0.0 -1.0
  outer loop
    vertex 137.30998263648232 2.0 -1.9999999999999998
    vertex 78.30998263648232 3.0000000000000004 -1.9999999999999998
    vertex 93.80998263648232 3.000000000000003 -1.9999999999999998
  endloop
endfacet
facet normal 0.0 0.0 -1.0
  outer loop
    vertex 137.30998263648232 2.0 -1.9999999999999998
    vertex 93.80998263648232 3.000000000000003 -1.9999999999999998
    vertex 94.80998263648232 3.000000000000003 -1.9999999999999998
  endloop
endfacet
facet normal 0.0 0.0 -1.0
  outer loop
    vertex 137.30998263648232 2.0 -1.9999999999999998
    vertex 94.80998263648232 3.000000000000003 -1.9999999999999998
    vertex 136.30998263648232 3.0000000000000004 -1.9999999999999998
  endloop
endfacet
facet normal 0.0 0.0 -1.0
  outer loop
    vertex 137.30998263648232 2.0 -1.9999999999999998
    vertex 136.30998263648232 3.0000000000000004 -1.9999999999999998
    vertex 137.30998263648232 60.0 -1.9999999999999998
  endloop
endfacet
facet normal 6.018221151779048e-17 1.0 -0.0
  outer loop
    vertex 94.80998263648232 3.000000000000003 0.0
    vertex 136.30998263648232 3.0000000000000004 -1.9999999999999998
    vertex 94.80998263648232 3.000000000000003 -1.9999999999999998
  endloop
endfacet
facet normal 6.018221151779048e-17 1.0 -0.0
  outer loop
    vertex 136.30998263648232 3.0000000000000004 -1.9999999999999998
    vertex 94.80998263648232 3.000000000000003 0.0
    vertex 136.30998263648232 3.0000000000000004 0.0
  endloop
endfacet
facet normal 0.0 -1.0 0.0
  outer loop
    vertex 137.30998263648232 2.0 0.0
    vertex 77.30998263648232 2.0 -1.9999999999999998
    vertex 137.30998263648232 2.0 -1.9999999999999998
  endloop
endfacet
facet normal 0.0 -1.0 0.0
  outer loop
    vertex 77.30998263648232 2.0 -1.9999999999999998
    vertex 137.30998263648232 2.0 0.0
    vertex 77.30998263648232 2.0 0.0
  endloop
endfacet
facet normal -1.0 0.0 0.0
  outer loop
    vertex 136.30998263648232 58.99999999999999 0.0
    vertex 136.30998263648232 3.0000000000000004 -1.9999999999999998
    vertex 136.30998263648232 3.0000000000000004 0.0
  endloop
endfacet
facet normal -1.0 0.0 0.0
  outer loop
    vertex 136.30998263648232 3.0000000000000004 -1.9999999999999998
    vertex 136.30998263648232 58.99999999999999 0.0
    vertex 136.30998263648232 58.99999999999999 -1.9999999999999998
  endloop
endfacet
facet normal -1.0 0.0 0.0
  outer loop
    vertex 77.30998263648232 60.0 0.0
    vertex 77.30998263648232 2.0 -1.9999999999999998
    vertex 77.30998263648232 2.0 0.0
  endloop
endfacet
facet normal -1.0 0.0 0.0
  outer loop
    vertex 77.30998263648232 2.0 -1.9999999999999998
    vertex 77.30998263648232 60.0 0.0
    vertex 77.30998263648232 60.0 -1.9999999999999998
  endloop
endfacet
facet normal 1.0 -0.0 -0.0
  outer loop
    vertex 78.30998263648232 58.99999999999999 -1.9999999999999998
    vertex 78.30998263648232 3.0000000000000004 0.0
    vertex 78.30998263648232 3.0000000000000004 -1.9999999999999998
  endloop
endfacet
facet normal 1.0 -0.0 -0.0
  outer loop
    vertex 78.30998263648232 3.0000000000000004 0.0
    vertex 78.30998263648232 58.99999999999999 -1.9999999999999998
    vertex 78.30998263648232 58.99999999999999 0.0
  endloop
endfacet
facet normal 1.0 -0.0 -0.0
  outer loop
    vertex 137.30998263648232 60.0 -1.9999999999999998
    vertex 137.30998263648232 2.0 0.0
    vertex 137.30998263648232 2.0 -1.9999999999999998
  endloop
endfacet
facet normal 1.0 -0.0 -0.0
  outer loop
    vertex 137.30998263648232 2.0 0.0
    vertex 137.30998263648232 60.0 -1.9999999999999998
    vertex 137.30998263648232 60.0 0.0
  endloop
endfacet
facet normal 0.0 -1.0 0.0
  outer loop
    vertex 93.80998263648232 58.99999999999999 0.0
    vertex 78.30998263648232 58.99999999999999 -1.9999999999999998
    vertex 93.80998263648232 58.99999999999999 -1.9999999999999998
  endloop
endfacet
facet normal 0.0 -1.0 0.0
  outer loop
    vertex 78.30998263648232 58.99999999999999 -1.9999999999999998
    vertex 93.80998263648232 58.99999999999999 0.0
    vertex 78.30998263648232 58.99999999999999 0.0
  endloop
endfacet
facet normal -0.0 1.0 -0.0
  outer loop
    vertex 77.30998263648232 60.0 0.0
    vertex 137.30998263648232 60.0 -1.9999999999999998
    vertex 77.30998263648232 60.0 -1.9999999999999998
  endloop
endfacet
facet normal -0.0 1.0 -0.0
  outer loop
    vertex 137.30998263648232 60.0 -1.9999999999999998
    vertex 77.30998263648232 60.0 0.0
    vertex 137.30998263648232 60.0 0.0
  endloop
endfacet
facet normal 0.0 0.0 -1.0
  outer loop
    vertex 75.30998263648233 62.0 0.0
    vertex 77.30998263648232 60.0 0.0
    vertex 75.30998263648233 0.0 0.0
  endloop
endfacet
facet normal 0.0 0.0 -1.0
  outer loop
    vertex 77.30998263648232 60.0 0.0
    vertex 75.30998263648233 62.0 0.0
    vertex 139.30998263648232 62.0 0.0
  endloop
endfacet
facet normal 0.0 0.0 -1.0
  outer loop
    vertex 77.30998263648232 60.0 0.0
    vertex 139.30998263648232 62.0 0.0
    vertex 137.30998263648232 60.0 0.0
  endloop
endfacet
facet normal 0.0 0.0 -1.0
  outer loop
    vertex 137.30998263648232 60.0 0.0
    vertex 139.30998263648232 62.0 0.0
    vertex 137.30998263648232 2.0 0.0
  endloop
endfacet
facet normal 0.0 0.0 -1.0
  outer loop
    vertex 75.30998263648233 0.0 0.0
    vertex 77.30998263648232 2.0 0.0
    vertex 139.30998263648232 0.0 0.0
  endloop
endfacet
facet normal 0.0 0.0 -1.0
  outer loop
    vertex 77.30998263648232 2.0 0.0
    vertex 75.30998263648233 0.0 0.0
    vertex 77.30998263648232 60.0 0.0
  endloop
endfacet
facet normal 0.0 0.0 -1.0
  outer loop
    vertex 139.30998263648232 0.0 0.0
    vertex 77.30998263648232 2.0 0.0
    vertex 137.30998263648232 2.0 0.0
  endloop
endfacet
facet normal 0.0 0.0 -1.0
  outer loop
    vertex 139.30998263648232 0.0 0.0
    vertex 137.30998263648232 2.0 0.0
    vertex 139.30998263648232 62.0 0.0
  endloop
endfacet
facet normal 0.38268343236509034 0.9238795325112867 -0.0
  outer loop
    vertex 105.30998263648233 23.33974596215562 1.9999999999999998
    vertex 107.72179218545712 22.340741737109326 0.0
    vertex 105.30998263648233 23.33974596215562 0.0
  endloop
endfacet
facet normal 0.38268343236509034 0.9238795325112867 -0.0
  outer loop
    vertex 107.72179218545712 22.340741737109326 0.0
    vertex 105.30998263648233 23.33974596215562 1.9999999999999998
    vertex 107.72179218545712 22.340741737109326 1.9999999999999998
  endloop
endfacet
facet normal 0.99144486137381 0.13052619222005557 -0.0
  outer loop
    vertex 100.30998263648232 32.00000000000002 0.0
    vertex 100.65072437359166 29.411809548974805 1.9999999999999998
    vertex 100.65072437359166 29.411809548974805 0.0
  endloop
endfacet
facet normal 0.99144486137381 0.13052619222005557 -0.0
  outer loop
    vertex 100.65072437359166 29.411809548974805 1.9999999999999998
    vertex 100.30998263648232 32.00000000000002 0.0
    vertex 100.30998263648232 32.00000000000002 1.9999999999999998
  endloop
endfacet
facet normal 0.13052619222006273 0.9914448613738089 5.159907718653481e-19
  outer loop
    vertex 107.72179218545712 22.340741737109326 0.0
    vertex 107.80998263648233 22.329131243968497 1.999999999999998
    vertex 107.80998263648233 22.329131243968497 -1.4099832412739487e-15
  endloop
endfacet
facet normal 0.13052619222006273 0.9914448613738089 5.159907718653481e-19
  outer loop
    vertex 107.80998263648233 22.329131243968497 1.999999999999998
    vertex 107.72179218545712 22.340741737109326 0.0
    vertex 107.72179218545712 22.340741737109326 1.9999999999999998
  endloop
endfacet
facet normal 0.0 0.0 -1.0
  outer loop
    vertex 93.80998263648232 58.99999999999999 0.0
    vertex 78.30998263648232 3.0000000000000004 0.0
    vertex 78.30998263648232 58.99999999999999 0.0
  endloop
endfacet
facet normal 0.0 0.0 -1.0
  outer loop
    vertex 78.30998263648232 3.0000000000000004 0.0
    vertex 93.80998263648232 58.99999999999999 0.0
    vertex 93.80998263648232 3.000000000000003 0.0
  endloop
endfacet
facet normal -0.7933533402912362 0.6087614290087197 0.0
  outer loop
    vertex 118.97023667432671 27.000000000000014 1.9999999999999998
    vertex 117.38105044834779 24.92893218813453 0.0
    vertex 117.38105044834779 24.92893218813453 1.9999999999999998
  endloop
endfacet
facet normal -0.7933533402912362 0.6087614290087197 0.0
  outer loop
    vertex 117.38105044834779 24.92893218813453 0.0
    vertex 118.97023667432671 27.000000000000014 1.9999999999999998
    vertex 118.97023667432671 27.000000000000014 0.0
  endloop
endfacet
facet normal -0.13052619222006273 0.9914448613738089 1.1533762571329336e-19
  outer loop
    vertex 112.80998263648232 22.329131243968497 1.9999999999999991
    vertex 112.89817308750753 22.340741737109326 0.0
    vertex 112.80998263648232 22.329131243968497 -7.049916206369744e-16
  endloop
endfacet
facet normal -0.13052619222006273 0.9914448613738089 1.1533762571329336e-19
  outer loop
    vertex 112.89817308750753 22.340741737109326 0.0
    vertex 112.80998263648232 22.329131243968497 1.9999999999999991
    vertex 112.89817308750753 22.340741737109326 1.9999999999999998
  endloop
endfacet
facet normal -0.38268343236508723 0.9238795325112878 -0.0
  outer loop
    vertex 112.89817308750753 22.340741737109326 1.9999999999999998
    vertex 115.30998263648235 23.33974596215562 0.0
    vertex 112.89817308750753 22.340741737109326 0.0
  endloop
endfacet
facet normal -0.38268343236508723 0.9238795325112878 -0.0
  outer loop
    vertex 115.30998263648235 23.33974596215562 0.0
    vertex 112.89817308750753 22.340741737109326 1.9999999999999998
    vertex 115.30998263648235 23.33974596215562 1.9999999999999998
  endloop
endfacet
facet normal -0.9238795325112839 0.38268343236509683 0.0
  outer loop
    vertex 119.96924089937302 29.411809548974805 1.9999999999999998
    vertex 118.97023667432671 27.000000000000014 0.0
    vertex 118.97023667432671 27.000000000000014 1.9999999999999998
  endloop
endfacet
facet normal -0.9238795325112839 0.38268343236509683 0.0
  outer loop
    vertex 118.97023667432671 27.000000000000014 0.0
    vertex 119.96924089937302 29.411809548974805 1.9999999999999998
    vertex 119.96924089937302 29.411809548974805 0.0
  endloop
endfacet
facet normal 0.6087614290087161 0.7933533402912387 -0.0
  outer loop
    vertex 103.23891482461684 24.92893218813453 1.9999999999999998
    vertex 105.30998263648233 23.33974596215562 0.0
    vertex 103.23891482461684 24.92893218813453 0.0
  endloop
endfacet
facet normal 0.6087614290087161 0.7933533402912387 -0.0
  outer loop
    vertex 105.30998263648233 23.33974596215562 0.0
    vertex 103.23891482461684 24.92893218813453 1.9999999999999998
    vertex 105.30998263648233 23.33974596215562 1.9999999999999998
  endloop
endfacet
facet normal 0.7933533402912386 0.6087614290087162 -0.0
  outer loop
    vertex 101.64972859863795 27.0 0.0
    vertex 103.23891482461684 24.92893218813453 1.9999999999999998
    vertex 103.23891482461684 24.92893218813453 0.0
  endloop
endfacet
facet normal 0.7933533402912386 0.6087614290087162 -0.0
  outer loop
    vertex 103.23891482461684 24.92893218813453 1.9999999999999998
    vertex 101.64972859863795 27.0 0.0
    vertex 101.64972859863795 27.0 1.9999999999999998
  endloop
endfacet
facet normal -0.6087614290087244 0.7933533402912323 -0.0
  outer loop
    vertex 115.30998263648235 23.33974596215562 1.9999999999999998
    vertex 117.38105044834779 24.92893218813453 0.0
    vertex 115.30998263648235 23.33974596215562 0.0
  endloop
endfacet
facet normal -0.6087614290087244 0.7933533402912323 -0.0
  outer loop
    vertex 117.38105044834779 24.92893218813453 0.0
    vertex 115.30998263648235 23.33974596215562 1.9999999999999998
    vertex 117.38105044834779 24.92893218813453 1.9999999999999998
  endloop
endfacet
facet normal -0.9914448613738112 0.13052619222004708 0.0
  outer loop
    vertex 120.30998263648233 32.00000000000002 1.9999999999999998
    vertex 119.96924089937302 29.411809548974805 0.0
    vertex 119.96924089937302 29.411809548974805 1.9999999999999998
  endloop
endfacet
facet normal -0.9914448613738112 0.13052619222004708 0.0
  outer loop
    vertex 119.96924089937302 29.411809548974805 0.0
    vertex 120.30998263648233 32.00000000000002 1.9999999999999998
    vertex 120.30998263648233 32.00000000000002 0.0
  endloop
endfacet
facet normal -0.0 1.0 -0.0
  outer loop
    vertex 95.30210541253558 32.00000000000002 1.9999999999999998
    vertex 100.30998263648232 32.00000000000002 0.0
    vertex 95.30210541253558 32.00000000000002 0.0
  endloop
endfacet
facet normal -0.0 1.0 -0.0
  outer loop
    vertex 100.30998263648232 32.00000000000002 0.0
    vertex 95.30210541253558 32.00000000000002 1.9999999999999998
    vertex 100.30998263648232 32.00000000000002 1.9999999999999998
  endloop
endfacet
facet normal 0.9238795325112875 0.38268343236508795 -0.0
  outer loop
    vertex 100.65072437359166 29.411809548974805 0.0
    vertex 101.64972859863795 27.0 1.9999999999999998
    vertex 101.64972859863795 27.0 0.0
  endloop
endfacet
facet normal 0.9238795325112875 0.38268343236508795 -0.0
  outer loop
    vertex 101.64972859863795 27.0 1.9999999999999998
    vertex 100.65072437359166 29.411809548974805 0.0
    vertex 100.65072437359166 29.411809548974805 1.9999999999999998
  endloop
endfacet
facet normal -0.0 1.0 -0.0
  outer loop
    vertex 120.30998263648233 32.00000000000002 0.0
    vertex 125.30998263648232 32.00000000000002 1.999999999999998
    vertex 125.30998263648232 32.00000000000002 -1.4099832412739487e-15
  endloop
endfacet
facet normal -0.0 1.0 -0.0
  outer loop
    vertex 125.30998263648232 32.00000000000002 1.999999999999998
    vertex 120.30998263648233 32.00000000000002 0.0
    vertex 120.30998263648233 32.00000000000002 1.9999999999999998
  endloop
endfacet
facet normal -1.0 0.0 0.0
  outer loop
    vertex 93.80998263648232 58.99999999999999 0.0
    vertex 93.80998263648232 3.000000000000003 -1.9999999999999998
    vertex 93.80998263648232 3.000000000000003 0.0
  endloop
endfacet
facet normal -1.0 0.0 0.0
  outer loop
    vertex 93.80998263648232 3.000000000000003 -1.9999999999999998
    vertex 93.80998263648232 58.99999999999999 0.0
    vertex 93.80998263648232 58.99999999999999 -1.9999999999999998
  endloop
endfacet
facet normal 0.0 -1.0 0.0
  outer loop
    vertex 136.30998263648232 58.99999999999999 0.0
    vertex 94.80998263648232 58.99999999999999 -1.9999999999999998
    vertex 136.30998263648232 58.99999999999999 -1.9999999999999998
  endloop
endfacet
facet normal 0.0 -1.0 0.0
  outer loop
    vertex 94.80998263648232 58.99999999999999 -1.9999999999999998
    vertex 136.30998263648232 58.99999999999999 0.0
    vertex 94.80998263648232 58.99999999999999 0.0
  endloop
endfacet
facet normal 0.7933533402912412 -0.6087614290087128 -0.0
  outer loop
    vertex 124.4208953399563 56.889087296526 -4.5824455341403335e-15
    vertex 123.54684291566791 55.749999999999986 1.9999999999999931
    vertex 123.54684291566791 55.749999999999986 -4.5824455341403335e-15
  endloop
endfacet
facet normal 0.7933533402912412 -0.6087614290087128 -0.0
  outer loop
    vertex 123.54684291566791 55.749999999999986 1.9999999999999931
    vertex 124.4208953399563 56.889087296526 -4.5824455341403335e-15
    vertex 124.4208953399563 56.889087296526 1.9999999999999931
  endloop
endfacet
facet normal 0.7933533402912383 0.6087614290087165 -0.0
  outer loop
    vertex 123.54684291566791 50.249999999999986 -4.5824455341403335e-15
    vertex 124.4208953399563 49.110912703473986 1.9999999999999931
    vertex 124.4208953399563 49.110912703473986 -4.5824455341403335e-15
  endloop
endfacet
facet normal 0.7933533402912383 0.6087614290087165 -0.0
  outer loop
    vertex 124.4208953399563 49.110912703473986 1.9999999999999931
    vertex 123.54684291566791 50.249999999999986 -4.5824455341403335e-15
    vertex 123.54684291566791 50.249999999999986 1.9999999999999931
  endloop
endfacet
facet normal 0.6087614290087228 0.7933533402912336 -0.0
  outer loop
    vertex 124.4208953399563 49.110912703473986 1.9999999999999931
    vertex 125.55998263648232 48.23686027918558 -4.5824455341403335e-15
    vertex 124.4208953399563 49.110912703473986 -4.5824455341403335e-15
  endloop
endfacet
facet normal 0.6087614290087228 0.7933533402912336 -0.0
  outer loop
    vertex 125.55998263648232 48.23686027918558 -4.5824455341403335e-15
    vertex 124.4208953399563 49.110912703473986 1.9999999999999931
    vertex 125.55998263648232 48.23686027918558 1.9999999999999931
  endloop
endfacet
facet normal 1.0 0.0 0.0
  outer loop
    vertex 94.80998263648232 58.99999999999999 -1.9999999999999998
    vertex 94.80998263648232 3.000000000000003 0.0
    vertex 94.80998263648232 3.000000000000003 -1.9999999999999998
  endloop
endfacet
facet normal 1.0 0.0 0.0
  outer loop
    vertex 94.80998263648232 3.000000000000003 0.0
    vertex 94.80998263648232 58.99999999999999 -1.9999999999999998
    vertex 94.80998263648232 58.99999999999999 0.0
  endloop
endfacet
facet normal -0.0 -0.0 1.0
  outer loop
    vertex 75.30998263648233 0.0 1.9999999999999998
    vertex 108.54684291566791 6.249999999999998 1.999999999999995
    vertex 75.30998263648233 62.0 1.9999999999999998
  endloop
endfacet
facet normal -0.0 -0.0 1.0
  outer loop
    vertex 108.54684291566791 6.249999999999998 1.999999999999995
    vertex 75.30998263648233 0.0 1.9999999999999998
    vertex 109.4208953399563 5.110912703473989 1.999999999999995
  endloop
endfacet
facet normal -0.0 -0.0 1.0
  outer loop
    vertex 109.4208953399563 5.110912703473989 1.999999999999995
    vertex 75.30998263648233 0.0 1.9999999999999998
    vertex 110.55998263648232 4.236860279185588 1.999999999999995
  endloop
endfacet
facet normal -0.0 -0.0 1.0
  outer loop
    vertex 110.55998263648232 4.236860279185588 1.999999999999995
    vertex 75.30998263648233 0.0 1.9999999999999998
    vertex 111.88647788841845 3.6874079554101247 1.999999999999995
  endloop
endfacet
facet normal -0.0 -0.0 1.0
  outer loop
    vertex 111.88647788841845 3.6874079554101247 1.999999999999995
    vertex 75.30998263648233 0.0 1.9999999999999998
    vertex 139.30998263648232 0.0 1.9999999999999998
  endloop
endfacet
facet normal -0.0 -0.0 1.0
  outer loop
    vertex 75.30998263648233 62.0 1.9999999999999998
    vertex 108.54684291566791 6.249999999999998 1.999999999999995
    vertex 95.30210541253558 32.00000000000002 1.9999999999999998
  endloop
endfacet
facet normal -0.0 -0.0 1.0
  outer loop
    vertex 95.30210541253558 32.00000000000002 1.9999999999999998
    vertex 108.54684291566791 6.249999999999998 1.999999999999995
    vertex 107.99739059189245 7.5764952519361355 1.999999999999995
  endloop
endfacet
facet normal -0.0 -0.0 1.0
  outer loop
    vertex 95.30210541253558 32.00000000000002 1.9999999999999998
    vertex 107.99739059189245 7.5764952519361355 1.999999999999995
    vertex 100.65072437359166 29.411809548974805 1.9999999999999998
  endloop
endfacet
facet normal -0.0 -0.0 1.0
  outer loop
    vertex 95.30210541253558 32.00000000000002 1.9999999999999998
    vertex 100.65072437359166 29.411809548974805 1.9999999999999998
    vertex 100.30998263648232 32.00000000000002 1.9999999999999998
  endloop
endfacet
facet normal -0.0 -0.0 1.0
  outer loop
    vertex 100.65072437359166 29.411809548974805 1.9999999999999998
    vertex 107.99739059189245 7.5764952519361355 1.999999999999995
    vertex 101.64972859863795 27.0 1.9999999999999998
  endloop
endfacet
facet normal -0.0 -0.0 1.0
  outer loop
    vertex 101.64972859863795 27.0 1.9999999999999998
    vertex 107.99739059189245 7.5764952519361355 1.999999999999995
    vertex 103.23891482461684 24.92893218813453 1.9999999999999998
  endloop
endfacet
facet normal -0.0 -0.0 1.0
  outer loop
    vertex 103.23891482461684 24.92893218813453 1.9999999999999998
    vertex 107.99739059189245 7.5764952519361355 1.999999999999995
    vertex 105.30998263648233 23.33974596215562 1.9999999999999998
  endloop
endfacet
facet normal -0.0 -0.0 1.0
  outer loop
    vertex 105.30998263648233 23.33974596215562 1.9999999999999998
    vertex 107.99739059189245 7.5764952519361355 1.999999999999995
    vertex 107.80998263648233 9.0 1.999999999999995
  endloop
endfacet
facet normal -0.0 -0.0 1.0
  outer loop
    vertex 105.30998263648233 23.33974596215562 1.9999999999999998
    vertex 107.80998263648233 9.0 1.999999999999995
    vertex 107.72179218545712 22.340741737109326 1.9999999999999998
  endloop
endfacet
facet normal -0.0 -0.0 1.0
  outer loop
    vertex 111.88647788841845 3.6874079554101247 1.999999999999995
    vertex 139.30998263648232 0.0 1.9999999999999998
    vertex 113.30998263648232 3.5000000000000004 1.999999999999995
  endloop
endfacet
facet normal -0.0 -0.0 1.0
  outer loop
    vertex 113.30998263648232 3.5000000000000004 1.999999999999995
    vertex 139.30998263648232 0.0 1.9999999999999998
    vertex 114.7334873845462 3.687407955410125 1.999999999999995
  endloop
endfacet
facet normal -0.0 -0.0 1.0
  outer loop
    vertex 114.7334873845462 3.687407955410125 1.999999999999995
    vertex 139.30998263648232 0.0 1.9999999999999998
    vertex 116.05998263648233 4.2368602791855885 1.999999999999995
  endloop
endfacet
facet normal -0.0 -0.0 1.0
  outer loop
    vertex 116.05998263648233 4.2368602791855885 1.999999999999995
    vertex 139.30998263648232 0.0 1.9999999999999998
    vertex 117.19906993300835 5.110912703473989 1.999999999999995
  endloop
endfacet
facet normal -0.0 -0.0 1.0
  outer loop
    vertex 117.19906993300835 5.110912703473989 1.999999999999995
    vertex 139.30998263648232 0.0 1.9999999999999998
    vertex 118.07312235729673 6.250000000000001 1.999999999999995
  endloop
endfacet
facet normal -0.0 -0.0 1.0
  outer loop
    vertex 118.07312235729673 6.250000000000001 1.999999999999995
    vertex 139.30998263648232 0.0 1.9999999999999998
    vertex 118.6225746810722 7.576495251936136 1.999999999999995
  endloop
endfacet
facet normal -0.0 -0.0 1.0
  outer loop
    vertex 118.6225746810722 7.576495251936136 1.999999999999995
    vertex 139.30998263648232 0.0 1.9999999999999998
    vertex 118.80998263648232 9.0 1.999999999999995
  endloop
endfacet
facet normal -0.0 -0.0 1.0
  outer loop
    vertex 118.80998263648232 9.0 1.999999999999995
    vertex 139.30998263648232 0.0 1.9999999999999998
    vertex 118.97023667432671 27.000000000000014 1.9999999999999998
  endloop
endfacet
facet normal -0.0 -0.0 1.0
  outer loop
    vertex 118.97023667432671 27.000000000000014 1.9999999999999998
    vertex 139.30998263648232 0.0 1.9999999999999998
    vertex 119.96924089937302 29.411809548974805 1.9999999999999998
  endloop
endfacet
facet normal -0.0 -0.0 1.0
  outer loop
    vertex 119.96924089937302 29.411809548974805 1.9999999999999998
    vertex 139.30998263648232 0.0 1.9999999999999998
    vertex 120.30998263648233 32.00000000000002 1.9999999999999998
  endloop
endfacet
facet normal -0.0 -0.0 1.0
  outer loop
    vertex 120.30998263648233 32.00000000000002 1.9999999999999998
    vertex 139.30998263648232 0.0 1.9999999999999998
    vertex 125.30998263648232 32.00000000000002 1.999999999999998
  endloop
endfacet
facet normal -0.0 -0.0 1.0
  outer loop
    vertex 125.30998263648232 32.00000000000002 1.999999999999998
    vertex 139.30998263648232 0.0 1.9999999999999998
    vertex 125.30998263648232 37.00000000000002 1.9999999999999991
  endloop
endfacet
facet normal -0.0 -0.0 1.0
  outer loop
    vertex 125.30998263648232 37.00000000000002 1.9999999999999991
    vertex 139.30998263648232 0.0 1.9999999999999998
    vertex 125.55998263648232 48.23686027918558 1.9999999999999931
  endloop
endfacet
facet normal -0.0 -0.0 1.0
  outer loop
    vertex 125.55998263648232 48.23686027918558 1.9999999999999931
    vertex 139.30998263648232 0.0 1.9999999999999998
    vertex 126.88647788841845 47.687407955410116 1.9999999999999931
  endloop
endfacet
facet normal -0.0 -0.0 1.0
  outer loop
    vertex 126.88647788841845 47.687407955410116 1.9999999999999931
    vertex 139.30998263648232 0.0 1.9999999999999998
    vertex 128.30998263648232 47.49999999999999 1.9999999999999931
  endloop
endfacet
facet normal -0.0 -0.0 1.0
  outer loop
    vertex 128.30998263648232 47.49999999999999 1.9999999999999931
    vertex 139.30998263648232 0.0 1.9999999999999998
    vertex 129.73348738454618 47.687407955410116 1.9999999999999931
  endloop
endfacet
facet normal -0.0 -0.0 1.0
  outer loop
    vertex 129.73348738454618 47.687407955410116 1.9999999999999931
    vertex 139.30998263648232 0.0 1.9999999999999998
    vertex 131.05998263648232 48.23686027918558 1.9999999999999931
  endloop
endfacet
facet normal -0.0 -0.0 1.0
  outer loop
    vertex 131.05998263648232 48.23686027918558 1.9999999999999931
    vertex 139.30998263648232 0.0 1.9999999999999998
    vertex 132.19906993300833 49.110912703473986 1.9999999999999931
  endloop
endfacet
facet normal -0.0 -0.0 1.0
  outer loop
    vertex 132.19906993300833 49.110912703473986 1.9999999999999931
    vertex 139.30998263648232 0.0 1.9999999999999998
    vertex 133.0731223572967 50.249999999999986 1.9999999999999931
  endloop
endfacet
facet normal -0.0 -0.0 1.0
  outer loop
    vertex 133.0731223572967 50.249999999999986 1.9999999999999931
    vertex 139.30998263648232 0.0 1.9999999999999998
    vertex 133.6225746810722 51.57649525193612 1.9999999999999931
  endloop
endfacet
facet normal -0.0 -0.0 1.0
  outer loop
    vertex 133.6225746810722 51.57649525193612 1.9999999999999931
    vertex 139.30998263648232 0.0 1.9999999999999998
    vertex 133.80998263648232 52.99999999999999 1.9999999999999931
  endloop
endfacet
facet normal -0.0 -0.0 1.0
  outer loop
    vertex 75.30998263648233 62.0 1.9999999999999998
    vertex 126.88647788841845 58.31259204458987 1.9999999999999931
    vertex 139.30998263648232 62.0 1.9999999999999998
  endloop
endfacet
facet normal -0.0 -0.0 1.0
  outer loop
    vertex 126.88647788841845 58.31259204458987 1.9999999999999931
    vertex 75.30998263648233 62.0 1.9999999999999998
    vertex 125.55998263648232 57.7631397208144 1.9999999999999931
  endloop
endfacet
facet normal -0.0 -0.0 1.0
  outer loop
    vertex 125.55998263648232 57.7631397208144 1.9999999999999931
    vertex 75.30998263648233 62.0 1.9999999999999998
    vertex 95.30210541253558 37.00000000000002 1.9999999999999998
  endloop
endfacet
facet normal -0.0 -0.0 1.0
  outer loop
    vertex 95.30210541253558 37.00000000000002 1.9999999999999998
    vertex 75.30998263648233 62.0 1.9999999999999998
    vertex 95.30210541253558 32.00000000000002 1.9999999999999998
  endloop
endfacet
facet normal -0.0 -0.0 1.0
  outer loop
    vertex 125.55998263648232 57.7631397208144 1.9999999999999931
    vertex 95.30210541253558 37.00000000000002 1.9999999999999998
    vertex 124.4208953399563 56.889087296526 1.9999999999999931
  endloop
endfacet
facet normal -0.0 -0.0 1.0
  outer loop
    vertex 124.4208953399563 56.889087296526 1.9999999999999931
    vertex 95.30210541253558 37.00000000000002 1.9999999999999998
    vertex 103.23891482461684 39.07106781186549 1.9999999999999998
  endloop
endfacet
facet normal -0.0 -0.0 1.0
  outer loop
    vertex 103.23891482461684 39.07106781186549 1.9999999999999998
    vertex 95.30210541253558 37.00000000000002 1.9999999999999998
    vertex 101.64972859863795 37.00000000000002 1.9999999999999998
  endloop
endfacet
facet normal -0.0 -0.0 1.0
  outer loop
    vertex 124.4208953399563 56.889087296526 1.9999999999999931
    vertex 103.23891482461684 39.07106781186549 1.9999999999999998
    vertex 105.30998263648233 40.66025403784441 1.9999999999999998
  endloop
endfacet
facet normal -0.0 -0.0 1.0
  outer loop
    vertex 124.4208953399563 56.889087296526 1.9999999999999931
    vertex 105.30998263648233 40.66025403784441 1.9999999999999998
    vertex 107.72179218545712 41.65925826289071 1.9999999999999998
  endloop
endfacet
facet normal -0.0 -0.0 1.0
  outer loop
    vertex 124.4208953399563 56.889087296526 1.9999999999999931
    vertex 107.72179218545712 41.65925826289071 1.9999999999999998
    vertex 110.30998263648233 42.00000000000002 1.9999999999999998
  endloop
endfacet
facet normal -0.0 -0.0 1.0
  outer loop
    vertex 124.4208953399563 56.889087296526 1.9999999999999931
    vertex 110.30998263648233 42.00000000000002 1.9999999999999998
    vertex 123.54684291566791 55.749999999999986 1.9999999999999931
  endloop
endfacet
facet normal -0.0 -0.0 1.0
  outer loop
    vertex 123.54684291566791 55.749999999999986 1.9999999999999931
    vertex 110.30998263648233 42.00000000000002 1.9999999999999998
    vertex 112.89817308750753 41.65925826289071 1.9999999999999998
  endloop
endfacet
facet normal -0.0 -0.0 1.0
  outer loop
    vertex 123.54684291566791 55.749999999999986 1.9999999999999931
    vertex 112.89817308750753 41.65925826289071 1.9999999999999998
    vertex 115.30998263648232 40.66025403784441 1.9999999999999998
  endloop
endfacet
facet normal -0.0 -0.0 1.0
  outer loop
    vertex 123.54684291566791 55.749999999999986 1.9999999999999931
    vertex 115.30998263648232 40.66025403784441 1.9999999999999998
    vertex 122.99739059189245 54.42350474806385 1.9999999999999931
  endloop
endfacet
facet normal -0.0 -0.0 1.0
  outer loop
    vertex 122.99739059189245 54.42350474806385 1.9999999999999931
    vertex 115.30998263648232 40.66025403784441 1.9999999999999998
    vertex 117.38105044834779 39.071067811865504 1.9999999999999998
  endloop
endfacet
facet normal -0.0 -0.0 1.0
  outer loop
    vertex 122.99739059189245 54.42350474806385 1.9999999999999931
    vertex 117.38105044834779 39.071067811865504 1.9999999999999998
    vertex 118.97023667432671 37.00000000000002 1.9999999999999998
  endloop
endfacet
facet normal -0.0 -0.0 1.0
  outer loop
    vertex 122.99739059189245 54.42350474806385 1.9999999999999931
    vertex 118.97023667432671 37.00000000000002 1.9999999999999998
    vertex 122.80998263648233 52.99999999999999 1.9999999999999931
  endloop
endfacet
facet normal -0.0 -0.0 1.0
  outer loop
    vertex 139.30998263648232 62.0 1.9999999999999998
    vertex 126.88647788841845 58.31259204458987 1.9999999999999931
    vertex 128.30998263648232 58.49999999999999 1.9999999999999931
  endloop
endfacet
facet normal -0.0 -0.0 1.0
  outer loop
    vertex 139.30998263648232 62.0 1.9999999999999998
    vertex 128.30998263648232 58.49999999999999 1.9999999999999931
    vertex 129.73348738454618 58.31259204458987 1.9999999999999931
  endloop
endfacet
facet normal -0.0 -0.0 1.0
  outer loop
    vertex 139.30998263648232 62.0 1.9999999999999998
    vertex 129.73348738454618 58.31259204458987 1.9999999999999931
    vertex 131.05998263648232 57.76313972081441 1.9999999999999931
  endloop
endfacet
facet normal -0.0 -0.0 1.0
  outer loop
    vertex 139.30998263648232 62.0 1.9999999999999998
    vertex 131.05998263648232 57.76313972081441 1.9999999999999931
    vertex 132.19906993300833 56.889087296526 1.9999999999999931
  endloop
endfacet
facet normal -0.0 -0.0 1.0
  outer loop
    vertex 139.30998263648232 62.0 1.9999999999999998
    vertex 132.19906993300833 56.889087296526 1.9999999999999931
    vertex 133.0731223572967 55.75 1.9999999999999931
  endloop
endfacet
facet normal -0.0 -0.0 1.0
  outer loop
    vertex 139.30998263648232 62.0 1.9999999999999998
    vertex 133.0731223572967 55.75 1.9999999999999931
    vertex 133.6225746810722 54.42350474806386 1.9999999999999931
  endloop
endfacet
facet normal -0.0 -0.0 1.0
  outer loop
    vertex 139.30998263648232 62.0 1.9999999999999998
    vertex 133.6225746810722 54.42350474806386 1.9999999999999931
    vertex 133.80998263648232 52.99999999999999 1.9999999999999931
  endloop
endfacet
facet normal -0.0 -0.0 1.0
  outer loop
    vertex 139.30998263648232 62.0 1.9999999999999998
    vertex 133.80998263648232 52.99999999999999 1.9999999999999931
    vertex 139.30998263648232 0.0 1.9999999999999998
  endloop
endfacet
facet normal -0.0 -0.0 1.0
  outer loop
    vertex 118.97023667432671 37.00000000000002 1.9999999999999998
    vertex 122.99739059189245 51.57649525193612 1.9999999999999931
    vertex 122.80998263648233 52.99999999999999 1.9999999999999931
  endloop
endfacet
facet normal -0.0 -0.0 1.0
  outer loop
    vertex 122.99739059189245 51.57649525193612 1.9999999999999931
    vertex 118.97023667432671 37.00000000000002 1.9999999999999998
    vertex 125.30998263648232 37.00000000000002 1.9999999999999991
  endloop
endfacet
facet normal -0.0 -0.0 1.0
  outer loop
    vertex 122.99739059189245 51.57649525193612 1.9999999999999931
    vertex 125.30998263648232 37.00000000000002 1.9999999999999991
    vertex 123.54684291566791 50.249999999999986 1.9999999999999931
  endloop
endfacet
facet normal -0.0 -0.0 1.0
  outer loop
    vertex 123.54684291566791 50.249999999999986 1.9999999999999931
    vertex 125.30998263648232 37.00000000000002 1.9999999999999991
    vertex 124.4208953399563 49.110912703473986 1.9999999999999931
  endloop
endfacet
facet normal -0.0 -0.0 1.0
  outer loop
    vertex 124.4208953399563 49.110912703473986 1.9999999999999931
    vertex 125.30998263648232 37.00000000000002 1.9999999999999991
    vertex 125.55998263648232 48.23686027918558 1.9999999999999931
  endloop
endfacet
facet normal -0.0 -0.0 1.0
  outer loop
    vertex 107.99739059189245 10.423504748063861 1.999999999999995
    vertex 107.80998263648233 19.0 1.9999999999999962
    vertex 107.80998263648233 9.0 1.999999999999995
  endloop
endfacet
facet normal -0.0 -0.0 1.0
  outer loop
    vertex 107.80998263648233 19.0 1.9999999999999962
    vertex 107.99739059189245 10.423504748063861 1.999999999999995
    vertex 108.54684291566791 11.749999999999998 1.999999999999995
  endloop
endfacet
facet normal -0.0 -0.0 1.0
  outer loop
    vertex 107.80998263648233 19.0 1.9999999999999962
    vertex 108.54684291566791 11.749999999999998 1.999999999999995
    vertex 112.80998263648232 19.0 1.999999999999998
  endloop
endfacet
facet normal -0.0 -0.0 1.0
  outer loop
    vertex 112.80998263648232 19.0 1.999999999999998
    vertex 108.54684291566791 11.749999999999998 1.999999999999995
    vertex 109.4208953399563 12.88908729652601 1.999999999999995
  endloop
endfacet
facet normal -0.0 -0.0 1.0
  outer loop
    vertex 112.80998263648232 19.0 1.999999999999998
    vertex 109.4208953399563 12.88908729652601 1.999999999999995
    vertex 110.55998263648232 13.763139720814413 1.999999999999995
  endloop
endfacet
facet normal -0.0 -0.0 1.0
  outer loop
    vertex 112.80998263648232 19.0 1.999999999999998
    vertex 110.55998263648232 13.763139720814413 1.999999999999995
    vertex 111.88647788841845 14.312592044589874 1.999999999999995
  endloop
endfacet
facet normal -0.0 -0.0 1.0
  outer loop
    vertex 112.80998263648232 19.0 1.999999999999998
    vertex 111.88647788841845 14.312592044589874 1.999999999999995
    vertex 113.30998263648232 14.500000000000002 1.999999999999995
  endloop
endfacet
facet normal -0.0 -0.0 1.0
  outer loop
    vertex 112.80998263648232 19.0 1.999999999999998
    vertex 113.30998263648232 14.500000000000002 1.999999999999995
    vertex 112.80998263648232 22.329131243968497 1.9999999999999991
  endloop
endfacet
facet normal -0.0 -0.0 1.0
  outer loop
    vertex 112.80998263648232 22.329131243968497 1.9999999999999991
    vertex 113.30998263648232 14.500000000000002 1.999999999999995
    vertex 112.89817308750753 22.340741737109326 1.9999999999999998
  endloop
endfacet
facet normal -0.0 -0.0 1.0
  outer loop
    vertex 112.89817308750753 22.340741737109326 1.9999999999999998
    vertex 113.30998263648232 14.500000000000002 1.999999999999995
    vertex 115.30998263648235 23.33974596215562 1.9999999999999998
  endloop
endfacet
facet normal -0.0 -0.0 1.0
  outer loop
    vertex 115.30998263648235 23.33974596215562 1.9999999999999998
    vertex 113.30998263648232 14.500000000000002 1.999999999999995
    vertex 114.7334873845462 14.312592044589877 1.999999999999995
  endloop
endfacet
facet normal -0.0 -0.0 1.0
  outer loop
    vertex 115.30998263648235 23.33974596215562 1.9999999999999998
    vertex 114.7334873845462 14.312592044589877 1.999999999999995
    vertex 116.05998263648233 13.763139720814415 1.999999999999995
  endloop
endfacet
facet normal -0.0 -0.0 1.0
  outer loop
    vertex 115.30998263648235 23.33974596215562 1.9999999999999998
    vertex 116.05998263648233 13.763139720814415 1.999999999999995
    vertex 117.38105044834779 24.92893218813453 1.9999999999999998
  endloop
endfacet
facet normal -0.0 -0.0 1.0
  outer loop
    vertex 117.38105044834779 24.92893218813453 1.9999999999999998
    vertex 116.05998263648233 13.763139720814415 1.999999999999995
    vertex 117.19906993300832 12.889087296526013 1.999999999999995
  endloop
endfacet
facet normal -0.0 -0.0 1.0
  outer loop
    vertex 117.38105044834779 24.92893218813453 1.9999999999999998
    vertex 117.19906993300832 12.889087296526013 1.999999999999995
    vertex 118.07312235729673 11.750000000000002 1.999999999999995
  endloop
endfacet
facet normal -0.0 -0.0 1.0
  outer loop
    vertex 117.38105044834779 24.92893218813453 1.9999999999999998
    vertex 118.07312235729673 11.750000000000002 1.999999999999995
    vertex 118.97023667432671 27.000000000000014 1.9999999999999998
  endloop
endfacet
facet normal -0.0 -0.0 1.0
  outer loop
    vertex 118.97023667432671 27.000000000000014 1.9999999999999998
    vertex 118.07312235729673 11.750000000000002 1.999999999999995
    vertex 118.6225746810722 10.423504748063868 1.999999999999995
  endloop
endfacet
facet normal -0.0 -0.0 1.0
  outer loop
    vertex 118.97023667432671 27.000000000000014 1.9999999999999998
    vertex 118.6225746810722 10.423504748063868 1.999999999999995
    vertex 118.80998263648232 9.0 1.999999999999995
  endloop
endfacet
facet normal -0.0 -0.0 1.0
  outer loop
    vertex 107.80998263648233 9.0 1.999999999999995
    vertex 107.80998263648233 22.329131243968497 1.999999999999998
    vertex 107.72179218545712 22.340741737109326 1.9999999999999998
  endloop
endfacet
facet normal -0.0 -0.0 1.0
  outer loop
    vertex 107.80998263648233 22.329131243968497 1.999999999999998
    vertex 107.80998263648233 9.0 1.999999999999995
    vertex 107.80998263648233 19.0 1.9999999999999962
  endloop
endfacet
facet normal -0.9238795325112873 -0.3826834323650885 0.0
  outer loop
    vertex 133.0731223572967 55.75 1.9999999999999931
    vertex 133.6225746810722 54.42350474806386 -4.5824455341403335e-15
    vertex 133.6225746810722 54.42350474806386 1.9999999999999931
  endloop
endfacet
facet normal -0.9238795325112873 -0.3826834323650885 0.0
  outer loop
    vertex 133.6225746810722 54.42350474806386 -4.5824455341403335e-15
    vertex 133.0731223572967 55.75 1.9999999999999931
    vertex 133.0731223572967 55.75 -4.5824455341403335e-15
  endloop
endfacet
facet normal 0.9914448613738107 0.1305261922200493 -0.0
  outer loop
    vertex 122.80998263648233 52.99999999999999 -4.5824455341403335e-15
    vertex 122.99739059189245 51.57649525193612 1.9999999999999931
    vertex 122.99739059189245 51.57649525193612 -4.5824455341403335e-15
  endloop
endfacet
facet normal 0.9914448613738107 0.1305261922200493 -0.0
  outer loop
    vertex 122.99739059189245 51.57649525193612 1.9999999999999931
    vertex 122.80998263648233 52.99999999999999 -4.5824455341403335e-15
    vertex 122.80998263648233 52.99999999999999 1.9999999999999931
  endloop
endfacet
facet normal 0.6087614290087178 -0.7933533402912374 0.0
  outer loop
    vertex 125.55998263648232 57.7631397208144 1.9999999999999931
    vertex 124.4208953399563 56.889087296526 -4.5824455341403335e-15
    vertex 125.55998263648232 57.7631397208144 -4.5824455341403335e-15
  endloop
endfacet
facet normal 0.6087614290087178 -0.7933533402912374 0.0
  outer loop
    vertex 124.4208953399563 56.889087296526 -4.5824455341403335e-15
    vertex 125.55998263648232 57.7631397208144 1.9999999999999931
    vertex 124.4208953399563 56.889087296526 1.9999999999999931
  endloop
endfacet
facet normal -0.6087614290087228 -0.7933533402912336 0.0
  outer loop
    vertex 132.19906993300833 56.889087296526 1.9999999999999931
    vertex 131.05998263648232 57.76313972081441 -4.5824455341403335e-15
    vertex 132.19906993300833 56.889087296526 -4.5824455341403335e-15
  endloop
endfacet
facet normal -0.6087614290087228 -0.7933533402912336 0.0
  outer loop
    vertex 131.05998263648232 57.76313972081441 -4.5824455341403335e-15
    vertex 132.19906993300833 56.889087296526 1.9999999999999931
    vertex 131.05998263648232 57.76313972081441 1.9999999999999931
  endloop
endfacet
facet normal -1.6449804481529408e-16 1.0 -0.0
  outer loop
    vertex 78.30998263648232 3.0000000000000004 0.0
    vertex 93.80998263648232 3.000000000000003 -1.9999999999999998
    vertex 78.30998263648232 3.0000000000000004 -1.9999999999999998
  endloop
endfacet
facet normal -1.6449804481529408e-16 1.0 -0.0
  outer loop
    vertex 93.80998263648232 3.000000000000003 -1.9999999999999998
    vertex 78.30998263648232 3.0000000000000004 0.0
    vertex 93.80998263648232 3.000000000000003 0.0
  endloop
endfacet
facet normal 0.0 0.0 -1.0
  outer loop
    vertex 94.80998263648232 58.99999999999999 -1.9999999999999998
    vertex 93.80998263648232 3.000000000000003 -1.9999999999999998
    vertex 93.80998263648232 58.99999999999999 -1.9999999999999998
  endloop
endfacet
facet normal 0.0 0.0 -1.0
  outer loop
    vertex 93.80998263648232 3.000000000000003 -1.9999999999999998
    vertex 94.80998263648232 58.99999999999999 -1.9999999999999998
    vertex 94.80998263648232 3.000000000000003 -1.9999999999999998
  endloop
endfacet
facet normal 0.1305261922200508 0.9914448613738105 -0.0
  outer loop
    vertex 111.88647788841845 3.6874079554101247 1.999999999999995
    vertex 113.30998263648232 3.5000000000000004 -2.8199664825478975e-15
    vertex 111.88647788841845 3.6874079554101247 -2.8199664825478975e-15
  endloop
endfacet
facet normal 0.1305261922200508 0.9914448613738105 -0.0
  outer loop
    vertex 113.30998263648232 3.5000000000000004 -2.8199664825478975e-15
    vertex 111.88647788841845 3.6874079554101247 1.999999999999995
    vertex 113.30998263648232 3.5000000000000004 1.999999999999995
  endloop
endfacet
facet normal 0.38268343236509517 -0.9238795325112846 0.0
  outer loop
    vertex 126.88647788841845 58.31259204458987 1.9999999999999931
    vertex 125.55998263648232 57.7631397208144 -4.5824455341403335e-15
    vertex 126.88647788841845 58.31259204458987 -4.5824455341403335e-15
  endloop
endfacet
facet normal 0.38268343236509517 -0.9238795325112846 0.0
  outer loop
    vertex 125.55998263648232 57.7631397208144 -4.5824455341403335e-15
    vertex 126.88647788841845 58.31259204458987 1.9999999999999931
    vertex 125.55998263648232 57.7631397208144 1.9999999999999931
  endloop
endfacet
facet normal 0.6087614290087202 -0.7933533402912357 0.0
  outer loop
    vertex 110.55998263648232 13.763139720814413 1.999999999999995
    vertex 109.4208953399563 12.88908729652601 -2.8199664825478975e-15
    vertex 110.55998263648232 13.763139720814413 -2.8199664825478975e-15
  endloop
endfacet
facet normal 0.6087614290087202 -0.7933533402912357 0.0
  outer loop
    vertex 109.4208953399563 12.88908729652601 -2.8199664825478975e-15
    vertex 110.55998263648232 13.763139720814413 1.999999999999995
    vertex 109.4208953399563 12.88908729652601 1.999999999999995
  endloop
endfacet
facet normal -0.9914448613738107 0.13052619222004982 0.0
  outer loop
    vertex 118.80998263648232 9.0 1.999999999999995
    vertex 118.6225746810722 7.576495251936136 -2.8199664825478975e-15
    vertex 118.6225746810722 7.576495251936136 1.999999999999995
  endloop
endfacet
facet normal -0.9914448613738107 0.13052619222004982 0.0
  outer loop
    vertex 118.6225746810722 7.576495251936136 -2.8199664825478975e-15
    vertex 118.80998263648232 9.0 1.999999999999995
    vertex 118.80998263648232 9.0 -2.8199664825478975e-15
  endloop
endfacet
facet normal 0.3826834323650885 0.9238795325112873 -0.0
  outer loop
    vertex 125.55998263648232 48.23686027918558 1.9999999999999931
    vertex 126.88647788841845 47.687407955410116 -4.5824455341403335e-15
    vertex 125.55998263648232 48.23686027918558 -4.5824455341403335e-15
  endloop
endfacet
facet normal 0.3826834323650885 0.9238795325112873 -0.0
  outer loop
    vertex 126.88647788841845 47.687407955410116 -4.5824455341403335e-15
    vertex 125.55998263648232 48.23686027918558 1.9999999999999931
    vertex 126.88647788841845 47.687407955410116 1.9999999999999931
  endloop
endfacet
facet normal -0.13052619222005127 -0.9914448613738105 0.0
  outer loop
    vertex 114.7334873845462 14.312592044589877 1.999999999999995
    vertex 113.30998263648232 14.500000000000002 -2.8199664825478975e-15
    vertex 114.7334873845462 14.312592044589877 -2.8199664825478975e-15
  endloop
endfacet
facet normal -0.13052619222005127 -0.9914448613738105 0.0
  outer loop
    vertex 113.30998263648232 14.500000000000002 -2.8199664825478975e-15
    vertex 114.7334873845462 14.312592044589877 1.999999999999995
    vertex 113.30998263648232 14.500000000000002 1.999999999999995
  endloop
endfacet
facet normal 0.1305261922200532 -0.9914448613738103 0.0
  outer loop
    vertex 113.30998263648232 14.500000000000002 1.999999999999995
    vertex 111.88647788841845 14.312592044589874 -2.8199664825478975e-15
    vertex 113.30998263648232 14.500000000000002 -2.8199664825478975e-15
  endloop
endfacet
facet normal 0.1305261922200532 -0.9914448613738103 0.0
  outer loop
    vertex 111.88647788841845 14.312592044589874 -2.8199664825478975e-15
    vertex 113.30998263648232 14.500000000000002 1.999999999999995
    vertex 111.88647788841845 14.312592044589874 1.999999999999995
  endloop
endfacet
facet normal -0.7933533402912383 0.6087614290087165 0.0
  outer loop
    vertex 133.0731223572967 50.249999999999986 1.9999999999999931
    vertex 132.19906993300833 49.110912703473986 -4.5824455341403335e-15
    vertex 132.19906993300833 49.110912703473986 1.9999999999999931
  endloop
endfacet
facet normal -0.7933533402912383 0.6087614290087165 0.0
  outer loop
    vertex 132.19906993300833 49.110912703473986 -4.5824455341403335e-15
    vertex 133.0731223572967 50.249999999999986 1.9999999999999931
    vertex 133.0731223572967 50.249999999999986 -4.5824455341403335e-15
  endloop
endfacet
facet normal -0.13052619222005127 0.9914448613738105 -0.0
  outer loop
    vertex 113.30998263648232 3.5000000000000004 1.999999999999995
    vertex 114.7334873845462 3.687407955410125 -2.8199664825478975e-15
    vertex 113.30998263648232 3.5000000000000004 -2.8199664825478975e-15
  endloop
endfacet
facet normal -0.13052619222005127 0.9914448613738105 -0.0
  outer loop
    vertex 114.7334873845462 3.687407955410125 -2.8199664825478975e-15
    vertex 113.30998263648232 3.5000000000000004 1.999999999999995
    vertex 114.7334873845462 3.687407955410125 1.999999999999995
  endloop
endfacet
facet normal 0.3826834323650897 0.9238795325112867 -0.0
  outer loop
    vertex 110.55998263648232 4.236860279185588 1.999999999999995
    vertex 111.88647788841845 3.6874079554101247 -2.8199664825478975e-15
    vertex 110.55998263648232 4.236860279185588 -2.8199664825478975e-15
  endloop
endfacet
facet normal 0.3826834323650897 0.9238795325112867 -0.0
  outer loop
    vertex 111.88647788841845 3.6874079554101247 -2.8199664825478975e-15
    vertex 110.55998263648232 4.236860279185588 1.999999999999995
    vertex 111.88647788841845 3.6874079554101247 1.999999999999995
  endloop
endfacet
facet normal -0.9914448613738107 -0.1305261922200493 0.0
  outer loop
    vertex 133.6225746810722 54.42350474806386 1.9999999999999931
    vertex 133.80998263648232 52.99999999999999 -4.5824455341403335e-15
    vertex 133.80998263648232 52.99999999999999 1.9999999999999931
  endloop
endfacet
facet normal -0.9914448613738107 -0.1305261922200493 0.0
  outer loop
    vertex 133.80998263648232 52.99999999999999 -4.5824455341403335e-15
    vertex 133.6225746810722 54.42350474806386 1.9999999999999931
    vertex 133.6225746810722 54.42350474806386 -4.5824455341403335e-15
  endloop
endfacet
facet normal 0.9238795325112873 0.3826834323650885 -0.0
  outer loop
    vertex 122.99739059189245 51.57649525193612 -4.5824455341403335e-15
    vertex 123.54684291566791 50.249999999999986 1.9999999999999931
    vertex 123.54684291566791 50.249999999999986 -4.5824455341403335e-15
  endloop
endfacet
facet normal 0.9238795325112873 0.3826834323650885 -0.0
  outer loop
    vertex 123.54684291566791 50.249999999999986 1.9999999999999931
    vertex 122.99739059189245 51.57649525193612 -4.5824455341403335e-15
    vertex 122.99739059189245 51.57649525193612 1.9999999999999931
  endloop
endfacet
facet normal 0.3826834323650885 -0.9238795325112873 0.0
  outer loop
    vertex 111.88647788841845 14.312592044589874 1.999999999999995
    vertex 110.55998263648232 13.763139720814413 -2.8199664825478975e-15
    vertex 111.88647788841845 14.312592044589874 -2.8199664825478975e-15
  endloop
endfacet
facet normal 0.3826834323650885 -0.9238795325112873 0.0
  outer loop
    vertex 110.55998263648232 13.763139720814413 -2.8199664825478975e-15
    vertex 111.88647788841845 14.312592044589874 1.999999999999995
    vertex 110.55998263648232 13.763139720814413 1.999999999999995
  endloop
endfacet
facet normal -0.9914448613738107 0.1305261922200493 0.0
  outer loop
    vertex 133.80998263648232 52.99999999999999 1.9999999999999931
    vertex 133.6225746810722 51.57649525193612 -4.5824455341403335e-15
    vertex 133.6225746810722 51.57649525193612 1.9999999999999931
  endloop
endfacet
facet normal -0.9914448613738107 0.1305261922200493 0.0
  outer loop
    vertex 133.6225746810722 51.57649525193612 -4.5824455341403335e-15
    vertex 133.80998263648232 52.99999999999999 1.9999999999999931
    vertex 133.80998263648232 52.99999999999999 -4.5824455341403335e-15
  endloop
endfacet
facet normal -0.3826834323650897 0.9238795325112867 -0.0
  outer loop
    vertex 114.7334873845462 3.687407955410125 1.999999999999995
    vertex 116.05998263648233 4.2368602791855885 -2.8199664825478975e-15
    vertex 114.7334873845462 3.687407955410125 -2.8199664825478975e-15
  endloop
endfacet
facet normal -0.3826834323650897 0.9238795325112867 -0.0
  outer loop
    vertex 116.05998263648233 4.2368602791855885 -2.8199664825478975e-15
    vertex 114.7334873845462 3.687407955410125 1.999999999999995
    vertex 116.05998263648233 4.2368602791855885 1.999999999999995
  endloop
endfacet
facet normal 0.9238795325112873 -0.3826834323650885 -0.0
  outer loop
    vertex 108.54684291566791 11.749999999999998 -2.8199664825478975e-15
    vertex 107.99739059189245 10.423504748063861 1.999999999999995
    vertex 107.99739059189245 10.423504748063861 -2.8199664825478975e-15
  endloop
endfacet
facet normal 0.9238795325112873 -0.3826834323650885 -0.0
  outer loop
    vertex 107.99739059189245 10.423504748063861 1.999999999999995
    vertex 108.54684291566791 11.749999999999998 -2.8199664825478975e-15
    vertex 108.54684291566791 11.749999999999998 1.999999999999995
  endloop
endfacet
facet normal -0.0 1.0 -0.0
  outer loop
    vertex 75.30998263648233 62.0 1.9999999999999998
    vertex 139.30998263648232 62.0 0.0
    vertex 75.30998263648233 62.0 0.0
  endloop
endfacet
facet normal -0.0 1.0 -0.0
  outer loop
    vertex 139.30998263648232 62.0 0.0
    vertex 75.30998263648233 62.0 1.9999999999999998
    vertex 139.30998263648232 62.0 1.9999999999999998
  endloop
endfacet
facet normal -1.0 0.0 0.0
  outer loop
    vertex 75.30998263648233 62.0 1.9999999999999998
    vertex 75.30998263648233 0.0 0.0
    vertex 75.30998263648233 0.0 1.9999999999999998
  endloop
endfacet
facet normal -1.0 0.0 0.0
  outer loop
    vertex 75.30998263648233 0.0 0.0
    vertex 75.30998263648233 62.0 1.9999999999999998
    vertex 75.30998263648233 62.0 0.0
  endloop
endfacet
facet normal 0.9914448613738107 -0.13052619222005038 -0.0
  outer loop
    vertex 122.99739059189245 54.42350474806385 -4.5824455341403335e-15
    vertex 122.80998263648233 52.99999999999999 1.9999999999999931
    vertex 122.80998263648233 52.99999999999999 -4.5824455341403335e-15
  endloop
endfacet
facet normal 0.9914448613738107 -0.13052619222005038 -0.0
  outer loop
    vertex 122.80998263648233 52.99999999999999 1.9999999999999931
    vertex 122.99739059189245 54.42350474806385 -4.5824455341403335e-15
    vertex 122.99739059189245 54.42350474806385 1.9999999999999931
  endloop
endfacet
facet normal 0.6087614290087197 0.7933533402912362 -0.0
  outer loop
    vertex 109.4208953399563 5.110912703473989 1.999999999999995
    vertex 110.55998263648232 4.236860279185588 -2.8199664825478975e-15
    vertex 109.4208953399563 5.110912703473989 -2.8199664825478975e-15
  endloop
endfacet
facet normal 0.6087614290087197 0.7933533402912362 -0.0
  outer loop
    vertex 110.55998263648232 4.236860279185588 -2.8199664825478975e-15
    vertex 109.4208953399563 5.110912703473989 1.999999999999995
    vertex 110.55998263648232 4.236860279185588 1.999999999999995
  endloop
endfacet
facet normal -0.9238795325112873 0.3826834323650885 0.0
  outer loop
    vertex 133.6225746810722 51.57649525193612 1.9999999999999931
    vertex 133.0731223572967 50.249999999999986 -4.5824455341403335e-15
    vertex 133.0731223572967 50.249999999999986 1.9999999999999931
  endloop
endfacet
facet normal -0.9238795325112873 0.3826834323650885 0.0
  outer loop
    vertex 133.0731223572967 50.249999999999986 -4.5824455341403335e-15
    vertex 133.6225746810722 51.57649525193612 1.9999999999999931
    vertex 133.6225746810722 51.57649525193612 -4.5824455341403335e-15
  endloop
endfacet
facet normal -0.7933533402912326 -0.608761429008724 0.0
  outer loop
    vertex 117.19906993300832 12.889087296526013 1.999999999999995
    vertex 118.07312235729673 11.750000000000002 -2.8199664825478975e-15
    vertex 118.07312235729673 11.750000000000002 1.999999999999995
  endloop
endfacet
facet normal -0.7933533402912326 -0.608761429008724 0.0
  outer loop
    vertex 118.07312235729673 11.750000000000002 -2.8199664825478975e-15
    vertex 117.19906993300832 12.889087296526013 1.999999999999995
    vertex 117.19906993300832 12.889087296526013 -2.8199664825478975e-15
  endloop
endfacet
facet normal -0.13052619222004933 0.9914448613738107 -0.0
  outer loop
    vertex 128.30998263648232 47.49999999999999 1.9999999999999931
    vertex 129.73348738454618 47.687407955410116 -4.5824455341403335e-15
    vertex 128.30998263648232 47.49999999999999 -4.5824455341403335e-15
  endloop
endfacet
facet normal -0.13052619222004933 0.9914448613738107 -0.0
  outer loop
    vertex 129.73348738454618 47.687407955410116 -4.5824455341403335e-15
    vertex 128.30998263648232 47.49999999999999 1.9999999999999931
    vertex 129.73348738454618 47.687407955410116 1.9999999999999931
  endloop
endfacet
facet normal 0.0 0.0 -1.0
  outer loop
    vertex 112.89817308750753 22.340741737109326 0.0
    vertex 112.80998263648232 19.0 -1.4099832412739487e-15
    vertex 112.80998263648232 22.329131243968497 -7.049916206369744e-16
  endloop
endfacet
facet normal 0.0 0.0 -1.0
  outer loop
    vertex 107.80998263648233 19.0 -3.524958103184872e-15
    vertex 107.99739059189245 10.423504748063861 -2.8199664825478975e-15
    vertex 107.80998263648233 9.0 -2.8199664825478975e-15
  endloop
endfacet
facet normal 0.0 0.0 -1.0
  outer loop
    vertex 107.99739059189245 10.423504748063861 -2.8199664825478975e-15
    vertex 107.80998263648233 19.0 -3.524958103184872e-15
    vertex 108.54684291566791 11.749999999999998 -2.8199664825478975e-15
  endloop
endfacet
facet normal 0.0 0.0 -1.0
  outer loop
    vertex 108.54684291566791 11.749999999999998 -2.8199664825478975e-15
    vertex 107.80998263648233 19.0 -3.524958103184872e-15
    vertex 112.80998263648232 19.0 -1.4099832412739487e-15
  endloop
endfacet
facet normal 0.0 0.0 -1.0
  outer loop
    vertex 108.54684291566791 11.749999999999998 -2.8199664825478975e-15
    vertex 112.80998263648232 19.0 -1.4099832412739487e-15
    vertex 109.4208953399563 12.88908729652601 -2.8199664825478975e-15
  endloop
endfacet
facet normal 0.0 0.0 -1.0
  outer loop
    vertex 109.4208953399563 12.88908729652601 -2.8199664825478975e-15
    vertex 112.80998263648232 19.0 -1.4099832412739487e-15
    vertex 110.55998263648232 13.763139720814413 -2.8199664825478975e-15
  endloop
endfacet
facet normal 0.0 0.0 -1.0
  outer loop
    vertex 110.55998263648232 13.763139720814413 -2.8199664825478975e-15
    vertex 112.80998263648232 19.0 -1.4099832412739487e-15
    vertex 111.88647788841845 14.312592044589874 -2.8199664825478975e-15
  endloop
endfacet
facet normal 0.0 0.0 -1.0
  outer loop
    vertex 111.88647788841845 14.312592044589874 -2.8199664825478975e-15
    vertex 112.80998263648232 19.0 -1.4099832412739487e-15
    vertex 113.30998263648232 14.500000000000002 -2.8199664825478975e-15
  endloop
endfacet
facet normal 0.0 0.0 -1.0
  outer loop
    vertex 113.30998263648232 14.500000000000002 -2.8199664825478975e-15
    vertex 112.80998263648232 19.0 -1.4099832412739487e-15
    vertex 112.89817308750753 22.340741737109326 0.0
  endloop
endfacet
facet normal 0.0 0.0 -1.0
  outer loop
    vertex 113.30998263648232 14.500000000000002 -2.8199664825478975e-15
    vertex 112.89817308750753 22.340741737109326 0.0
    vertex 115.30998263648235 23.33974596215562 0.0
  endloop
endfacet
facet normal 0.0 0.0 -1.0
  outer loop
    vertex 113.30998263648232 14.500000000000002 -2.8199664825478975e-15
    vertex 115.30998263648235 23.33974596215562 0.0
    vertex 114.7334873845462 14.312592044589877 -2.8199664825478975e-15
  endloop
endfacet
facet normal 0.0 0.0 -1.0
  outer loop
    vertex 114.7334873845462 14.312592044589877 -2.8199664825478975e-15
    vertex 115.30998263648235 23.33974596215562 0.0
    vertex 116.05998263648233 13.763139720814415 -2.8199664825478975e-15
  endloop
endfacet
facet normal 0.0 0.0 -1.0
  outer loop
    vertex 116.05998263648233 13.763139720814415 -2.8199664825478975e-15
    vertex 115.30998263648235 23.33974596215562 0.0
    vertex 117.38105044834779 24.92893218813453 0.0
  endloop
endfacet
facet normal 0.0 0.0 -1.0
  outer loop
    vertex 116.05998263648233 13.763139720814415 -2.8199664825478975e-15
    vertex 117.38105044834779 24.92893218813453 0.0
    vertex 117.19906993300832 12.889087296526013 -2.8199664825478975e-15
  endloop
endfacet
facet normal 0.0 0.0 -1.0
  outer loop
    vertex 117.19906993300832 12.889087296526013 -2.8199664825478975e-15
    vertex 117.38105044834779 24.92893218813453 0.0
    vertex 118.07312235729673 11.750000000000002 -2.8199664825478975e-15
  endloop
endfacet
facet normal 0.0 0.0 -1.0
  outer loop
    vertex 118.07312235729673 11.750000000000002 -2.8199664825478975e-15
    vertex 117.38105044834779 24.92893218813453 0.0
    vertex 118.97023667432671 27.000000000000014 0.0
  endloop
endfacet
facet normal 0.0 0.0 -1.0
  outer loop
    vertex 118.07312235729673 11.750000000000002 -2.8199664825478975e-15
    vertex 118.97023667432671 27.000000000000014 0.0
    vertex 118.6225746810722 10.423504748063868 -2.8199664825478975e-15
  endloop
endfacet
facet normal 0.0 0.0 -1.0
  outer loop
    vertex 118.6225746810722 10.423504748063868 -2.8199664825478975e-15
    vertex 118.97023667432671 27.000000000000014 0.0
    vertex 118.80998263648232 9.0 -2.8199664825478975e-15
  endloop
endfacet
facet normal 0.0 0.0 -1.0
  outer loop
    vertex 118.97023667432671 37.00000000000002 0.0
    vertex 122.99739059189245 51.57649525193612 -4.5824455341403335e-15
    vertex 125.30998263648232 37.00000000000002 -7.049916206369744e-16
  endloop
endfacet
facet normal 0.0 0.0 -1.0
  outer loop
    vertex 122.99739059189245 51.57649525193612 -4.5824455341403335e-15
    vertex 118.97023667432671 37.00000000000002 0.0
    vertex 122.80998263648233 52.99999999999999 -4.5824455341403335e-15
  endloop
endfacet
facet normal 0.0 0.0 -1.0
  outer loop
    vertex 125.30998263648232 37.00000000000002 -7.049916206369744e-16
    vertex 122.99739059189245 51.57649525193612 -4.5824455341403335e-15
    vertex 123.54684291566791 50.249999999999986 -4.5824455341403335e-15
  endloop
endfacet
facet normal 0.0 0.0 -1.0
  outer loop
    vertex 125.30998263648232 37.00000000000002 -7.049916206369744e-16
    vertex 123.54684291566791 50.249999999999986 -4.5824455341403335e-15
    vertex 124.4208953399563 49.110912703473986 -4.5824455341403335e-15
  endloop
endfacet
facet normal 0.0 0.0 -1.0
  outer loop
    vertex 125.30998263648232 37.00000000000002 -7.049916206369744e-16
    vertex 124.4208953399563 49.110912703473986 -4.5824455341403335e-15
    vertex 125.55998263648232 48.23686027918558 -4.5824455341403335e-15
  endloop
endfacet
facet normal 0.0 0.0 -1.0
  outer loop
    vertex 125.30998263648232 37.00000000000002 -7.049916206369744e-16
    vertex 125.55998263648232 48.23686027918558 -4.5824455341403335e-15
    vertex 125.30998263648232 32.00000000000002 -1.4099832412739487e-15
  endloop
endfacet
facet normal 0.0 0.0 -1.0
  outer loop
    vertex 94.80998263648232 58.99999999999999 0.0
    vertex 95.30210541253558 37.00000000000002 0.0
    vertex 94.80998263648232 3.000000000000003 0.0
  endloop
endfacet
facet normal 0.0 0.0 -1.0
  outer loop
    vertex 95.30210541253558 37.00000000000002 0.0
    vertex 94.80998263648232 58.99999999999999 0.0
    vertex 125.55998263648232 57.7631397208144 -4.5824455341403335e-15
  endloop
endfacet
facet normal 0.0 0.0 -1.0
  outer loop
    vertex 125.55998263648232 57.7631397208144 -4.5824455341403335e-15
    vertex 94.80998263648232 58.99999999999999 0.0
    vertex 126.88647788841845 58.31259204458987 -4.5824455341403335e-15
  endloop
endfacet
facet normal 0.0 0.0 -1.0
  outer loop
    vertex 126.88647788841845 58.31259204458987 -4.5824455341403335e-15
    vertex 94.80998263648232 58.99999999999999 0.0
    vertex 128.30998263648232 58.49999999999999 -4.5824455341403335e-15
  endloop
endfacet
facet normal 0.0 0.0 -1.0
  outer loop
    vertex 128.30998263648232 58.49999999999999 -4.5824455341403335e-15
    vertex 94.80998263648232 58.99999999999999 0.0
    vertex 136.30998263648232 58.99999999999999 0.0
  endloop
endfacet
facet normal 0.0 0.0 -1.0
  outer loop
    vertex 95.30210541253558 37.00000000000002 0.0
    vertex 125.55998263648232 57.7631397208144 -4.5824455341403335e-15
    vertex 124.4208953399563 56.889087296526 -4.5824455341403335e-15
  endloop
endfacet
facet normal 0.0 0.0 -1.0
  outer loop
    vertex 95.30210541253558 37.00000000000002 0.0
    vertex 124.4208953399563 56.889087296526 -4.5824455341403335e-15
    vertex 103.23891482461684 39.07106781186549 0.0
  endloop
endfacet
facet normal 0.0 0.0 -1.0
  outer loop
    vertex 95.30210541253558 37.00000000000002 0.0
    vertex 103.23891482461684 39.07106781186549 0.0
    vertex 101.64972859863795 37.00000000000002 0.0
  endloop
endfacet
facet normal 0.0 0.0 -1.0
  outer loop
    vertex 103.23891482461684 39.07106781186549 0.0
    vertex 124.4208953399563 56.889087296526 -4.5824455341403335e-15
    vertex 105.30998263648233 40.66025403784441 0.0
  endloop
endfacet
facet normal 0.0 0.0 -1.0
  outer loop
    vertex 105.30998263648233 40.66025403784441 0.0
    vertex 124.4208953399563 56.889087296526 -4.5824455341403335e-15
    vertex 107.72179218545712 41.65925826289071 0.0
  endloop
endfacet
facet normal 0.0 0.0 -1.0
  outer loop
    vertex 107.72179218545712 41.65925826289071 0.0
    vertex 124.4208953399563 56.889087296526 -4.5824455341403335e-15
    vertex 110.30998263648233 42.00000000000002 0.0
  endloop
endfacet
facet normal 0.0 0.0 -1.0
  outer loop
    vertex 110.30998263648233 42.00000000000002 0.0
    vertex 124.4208953399563 56.889087296526 -4.5824455341403335e-15
    vertex 123.54684291566791 55.749999999999986 -4.5824455341403335e-15
  endloop
endfacet
facet normal 0.0 0.0 -1.0
  outer loop
    vertex 110.30998263648233 42.00000000000002 0.0
    vertex 123.54684291566791 55.749999999999986 -4.5824455341403335e-15
    vertex 112.89817308750753 41.65925826289071 0.0
  endloop
endfacet
facet normal 0.0 0.0 -1.0
  outer loop
    vertex 112.89817308750753 41.65925826289071 0.0
    vertex 123.54684291566791 55.749999999999986 -4.5824455341403335e-15
    vertex 115.30998263648232 40.66025403784441 0.0
  endloop
endfacet
facet normal 0.0 0.0 -1.0
  outer loop
    vertex 115.30998263648232 40.66025403784441 0.0
    vertex 123.54684291566791 55.749999999999986 -4.5824455341403335e-15
    vertex 122.99739059189245 54.42350474806385 -4.5824455341403335e-15
  endloop
endfacet
facet normal 0.0 0.0 -1.0
  outer loop
    vertex 115.30998263648232 40.66025403784441 0.0
    vertex 122.99739059189245 54.42350474806385 -4.5824455341403335e-15
    vertex 117.38105044834779 39.071067811865504 0.0
  endloop
endfacet
facet normal 0.0 0.0 -1.0
  outer loop
    vertex 117.38105044834779 39.071067811865504 0.0
    vertex 122.99739059189245 54.42350474806385 -4.5824455341403335e-15
    vertex 118.97023667432671 37.00000000000002 0.0
  endloop
endfacet
facet normal 0.0 0.0 -1.0
  outer loop
    vertex 118.97023667432671 37.00000000000002 0.0
    vertex 122.99739059189245 54.42350474806385 -4.5824455341403335e-15
    vertex 122.80998263648233 52.99999999999999 -4.5824455341403335e-15
  endloop
endfacet
facet normal 0.0 0.0 -1.0
  outer loop
    vertex 128.30998263648232 58.49999999999999 -4.5824455341403335e-15
    vertex 136.30998263648232 58.99999999999999 0.0
    vertex 129.73348738454618 58.31259204458987 -4.5824455341403335e-15
  endloop
endfacet
facet normal 0.0 0.0 -1.0
  outer loop
    vertex 129.73348738454618 58.31259204458987 -4.5824455341403335e-15
    vertex 136.30998263648232 58.99999999999999 0.0
    vertex 131.05998263648232 57.76313972081441 -4.5824455341403335e-15
  endloop
endfacet
facet normal 0.0 0.0 -1.0
  outer loop
    vertex 131.05998263648232 57.76313972081441 -4.5824455341403335e-15
    vertex 136.30998263648232 58.99999999999999 0.0
    vertex 132.19906993300833 56.889087296526 -4.5824455341403335e-15
  endloop
endfacet
facet normal 0.0 0.0 -1.0
  outer loop
    vertex 132.19906993300833 56.889087296526 -4.5824455341403335e-15
    vertex 136.30998263648232 58.99999999999999 0.0
    vertex 133.0731223572967 55.75 -4.5824455341403335e-15
  endloop
endfacet
facet normal 0.0 0.0 -1.0
  outer loop
    vertex 133.0731223572967 55.75 -4.5824455341403335e-15
    vertex 136.30998263648232 58.99999999999999 0.0
    vertex 133.6225746810722 54.42350474806386 -4.5824455341403335e-15
  endloop
endfacet
facet normal 0.0 0.0 -1.0
  outer loop
    vertex 133.6225746810722 54.42350474806386 -4.5824455341403335e-15
    vertex 136.30998263648232 58.99999999999999 0.0
    vertex 133.80998263648232 52.99999999999999 -4.5824455341403335e-15
  endloop
endfacet
facet normal 0.0 0.0 -1.0
  outer loop
    vertex 94.80998263648232 3.000000000000003 0.0
    vertex 113.30998263648232 3.5000000000000004 -2.8199664825478975e-15
    vertex 136.30998263648232 3.0000000000000004 0.0
  endloop
endfacet
facet normal 0.0 0.0 -1.0
  outer loop
    vertex 113.30998263648232 3.5000000000000004 -2.8199664825478975e-15
    vertex 94.80998263648232 3.000000000000003 0.0
    vertex 111.88647788841845 3.6874079554101247 -2.8199664825478975e-15
  endloop
endfacet
facet normal 0.0 0.0 -1.0
  outer loop
    vertex 111.88647788841845 3.6874079554101247 -2.8199664825478975e-15
    vertex 94.80998263648232 3.000000000000003 0.0
    vertex 110.55998263648232 4.236860279185588 -2.8199664825478975e-15
  endloop
endfacet
facet normal 0.0 0.0 -1.0
  outer loop
    vertex 110.55998263648232 4.236860279185588 -2.8199664825478975e-15
    vertex 94.80998263648232 3.000000000000003 0.0
    vertex 109.4208953399563 5.110912703473989 -2.8199664825478975e-15
  endloop
endfacet
facet normal 0.0 0.0 -1.0
  outer loop
    vertex 109.4208953399563 5.110912703473989 -2.8199664825478975e-15
    vertex 94.80998263648232 3.000000000000003 0.0
    vertex 108.54684291566791 6.249999999999998 -2.8199664825478975e-15
  endloop
endfacet
facet normal 0.0 0.0 -1.0
  outer loop
    vertex 108.54684291566791 6.249999999999998 -2.8199664825478975e-15
    vertex 94.80998263648232 3.000000000000003 0.0
    vertex 95.30210541253558 32.00000000000002 0.0
  endloop
endfacet
facet normal 0.0 0.0 -1.0
  outer loop
    vertex 95.30210541253558 32.00000000000002 0.0
    vertex 94.80998263648232 3.000000000000003 0.0
    vertex 95.30210541253558 37.00000000000002 0.0
  endloop
endfacet
facet normal 0.0 0.0 -1.0
  outer loop
    vertex 108.54684291566791 6.249999999999998 -2.8199664825478975e-15
    vertex 95.30210541253558 32.00000000000002 0.0
    vertex 107.99739059189245 7.5764952519361355 -2.8199664825478975e-15
  endloop
endfacet
facet normal 0.0 0.0 -1.0
  outer loop
    vertex 107.99739059189245 7.5764952519361355 -2.8199664825478975e-15
    vertex 95.30210541253558 32.00000000000002 0.0
    vertex 100.65072437359166 29.411809548974805 0.0
  endloop
endfacet
facet normal 0.0 0.0 -1.0
  outer loop
    vertex 100.65072437359166 29.411809548974805 0.0
    vertex 95.30210541253558 32.00000000000002 0.0
    vertex 100.30998263648232 32.00000000000002 0.0
  endloop
endfacet
facet normal 0.0 0.0 -1.0
  outer loop
    vertex 107.99739059189245 7.5764952519361355 -2.8199664825478975e-15
    vertex 100.65072437359166 29.411809548974805 0.0
    vertex 101.64972859863795 27.0 0.0
  endloop
endfacet
facet normal 0.0 0.0 -1.0
  outer loop
    vertex 107.99739059189245 7.5764952519361355 -2.8199664825478975e-15
    vertex 101.64972859863795 27.0 0.0
    vertex 103.23891482461684 24.92893218813453 0.0
  endloop
endfacet
facet normal 0.0 0.0 -1.0
  outer loop
    vertex 107.99739059189245 7.5764952519361355 -2.8199664825478975e-15
    vertex 103.23891482461684 24.92893218813453 0.0
    vertex 105.30998263648233 23.33974596215562 0.0
  endloop
endfacet
facet normal 0.0 0.0 -1.0
  outer loop
    vertex 107.99739059189245 7.5764952519361355 -2.8199664825478975e-15
    vertex 105.30998263648233 23.33974596215562 0.0
    vertex 107.80998263648233 9.0 -2.8199664825478975e-15
  endloop
endfacet
facet normal 0.0 0.0 -1.0
  outer loop
    vertex 107.80998263648233 9.0 -2.8199664825478975e-15
    vertex 105.30998263648233 23.33974596215562 0.0
    vertex 107.72179218545712 22.340741737109326 0.0
  endloop
endfacet
facet normal 0.0 0.0 -1.0
  outer loop
    vertex 107.80998263648233 9.0 -2.8199664825478975e-15
    vertex 107.72179218545712 22.340741737109326 0.0
    vertex 107.80998263648233 22.329131243968497 -1.4099832412739487e-15
  endloop
endfacet
facet normal 0.0 0.0 -1.0
  outer loop
    vertex 107.80998263648233 9.0 -2.8199664825478975e-15
    vertex 107.80998263648233 22.329131243968497 -1.4099832412739487e-15
    vertex 107.80998263648233 19.0 -3.524958103184872e-15
  endloop
endfacet
facet normal 0.0 0.0 -1.0
  outer loop
    vertex 136.30998263648232 3.0000000000000004 0.0
    vertex 113.30998263648232 3.5000000000000004 -2.8199664825478975e-15
    vertex 114.7334873845462 3.687407955410125 -2.8199664825478975e-15
  endloop
endfacet
facet normal 0.0 0.0 -1.0
  outer loop
    vertex 136.30998263648232 3.0000000000000004 0.0
    vertex 114.7334873845462 3.687407955410125 -2.8199664825478975e-15
    vertex 116.05998263648233 4.2368602791855885 -2.8199664825478975e-15
  endloop
endfacet
facet normal 0.0 0.0 -1.0
  outer loop
    vertex 136.30998263648232 3.0000000000000004 0.0
    vertex 116.05998263648233 4.2368602791855885 -2.8199664825478975e-15
    vertex 117.19906993300835 5.110912703473989 -2.8199664825478975e-15
  endloop
endfacet
facet normal 0.0 0.0 -1.0
  outer loop
    vertex 136.30998263648232 3.0000000000000004 0.0
    vertex 117.19906993300835 5.110912703473989 -2.8199664825478975e-15
    vertex 118.07312235729673 6.250000000000001 -2.8199664825478975e-15
  endloop
endfacet
facet normal 0.0 0.0 -1.0
  outer loop
    vertex 136.30998263648232 3.0000000000000004 0.0
    vertex 118.07312235729673 6.250000000000001 -2.8199664825478975e-15
    vertex 118.6225746810722 7.576495251936136 -2.8199664825478975e-15
  endloop
endfacet
facet normal 0.0 0.0 -1.0
  outer loop
    vertex 136.30998263648232 3.0000000000000004 0.0
    vertex 118.6225746810722 7.576495251936136 -2.8199664825478975e-15
    vertex 118.80998263648232 9.0 -2.8199664825478975e-15
  endloop
endfacet
facet normal 0.0 0.0 -1.0
  outer loop
    vertex 136.30998263648232 3.0000000000000004 0.0
    vertex 118.80998263648232 9.0 -2.8199664825478975e-15
    vertex 118.97023667432671 27.000000000000014 0.0
  endloop
endfacet
facet normal 0.0 0.0 -1.0
  outer loop
    vertex 136.30998263648232 3.0000000000000004 0.0
    vertex 118.97023667432671 27.000000000000014 0.0
    vertex 119.96924089937302 29.411809548974805 0.0
  endloop
endfacet
facet normal 0.0 0.0 -1.0
  outer loop
    vertex 136.30998263648232 3.0000000000000004 0.0
    vertex 119.96924089937302 29.411809548974805 0.0
    vertex 120.30998263648233 32.00000000000002 0.0
  endloop
endfacet
facet normal 0.0 0.0 -1.0
  outer loop
    vertex 136.30998263648232 3.0000000000000004 0.0
    vertex 120.30998263648233 32.00000000000002 0.0
    vertex 125.30998263648232 32.00000000000002 -1.4099832412739487e-15
  endloop
endfacet
facet normal 0.0 0.0 -1.0
  outer loop
    vertex 136.30998263648232 3.0000000000000004 0.0
    vertex 125.30998263648232 32.00000000000002 -1.4099832412739487e-15
    vertex 125.55998263648232 48.23686027918558 -4.5824455341403335e-15
  endloop
endfacet
facet normal 0.0 0.0 -1.0
  outer loop
    vertex 136.30998263648232 3.0000000000000004 0.0
    vertex 125.55998263648232 48.23686027918558 -4.5824455341403335e-15
    vertex 126.88647788841845 47.687407955410116 -4.5824455341403335e-15
  endloop
endfacet
facet normal 0.0 0.0 -1.0
  outer loop
    vertex 136.30998263648232 3.0000000000000004 0.0
    vertex 126.88647788841845 47.687407955410116 -4.5824455341403335e-15
    vertex 128.30998263648232 47.49999999999999 -4.5824455341403335e-15
  endloop
endfacet
facet normal 0.0 0.0 -1.0
  outer loop
    vertex 136.30998263648232 3.0000000000000004 0.0
    vertex 128.30998263648232 47.49999999999999 -4.5824455341403335e-15
    vertex 129.73348738454618 47.687407955410116 -4.5824455341403335e-15
  endloop
endfacet
facet normal 0.0 0.0 -1.0
  outer loop
    vertex 136.30998263648232 3.0000000000000004 0.0
    vertex 129.73348738454618 47.687407955410116 -4.5824455341403335e-15
    vertex 131.05998263648232 48.23686027918558 -4.5824455341403335e-15
  endloop
endfacet
facet normal 0.0 0.0 -1.0
  outer loop
    vertex 136.30998263648232 3.0000000000000004 0.0
    vertex 131.05998263648232 48.23686027918558 -4.5824455341403335e-15
    vertex 132.19906993300833 49.110912703473986 -4.5824455341403335e-15
  endloop
endfacet
facet normal 0.0 0.0 -1.0
  outer loop
    vertex 136.30998263648232 3.0000000000000004 0.0
    vertex 132.19906993300833 49.110912703473986 -4.5824455341403335e-15
    vertex 133.0731223572967 50.249999999999986 -4.5824455341403335e-15
  endloop
endfacet
facet normal 0.0 0.0 -1.0
  outer loop
    vertex 136.30998263648232 3.0000000000000004 0.0
    vertex 133.0731223572967 50.249999999999986 -4.5824455341403335e-15
    vertex 133.6225746810722 51.57649525193612 -4.5824455341403335e-15
  endloop
endfacet
facet normal 0.0 0.0 -1.0
  outer loop
    vertex 136.30998263648232 3.0000000000000004 0.0
    vertex 133.6225746810722 51.57649525193612 -4.5824455341403335e-15
    vertex 133.80998263648232 52.99999999999999 -4.5824455341403335e-15
  endloop
endfacet
facet normal 0.0 0.0 -1.0
  outer loop
    vertex 136.30998263648232 3.0000000000000004 0.0
    vertex 133.80998263648232 52.99999999999999 -4.5824455341403335e-15
    vertex 136.30998263648232 58.99999999999999 0.0
  endloop
endfacet
facet normal 0.1305261922200493 0.9914448613738107 -0.0
  outer loop
    vertex 126.88647788841845 47.687407955410116 1.9999999999999931
    vertex 128.30998263648232 47.49999999999999 -4.5824455341403335e-15
    vertex 126.88647788841845 47.687407955410116 -4.5824455341403335e-15
  endloop
endfacet
facet normal 0.1305261922200493 0.9914448613738107 -0.0
  outer loop
    vertex 128.30998263648232 47.49999999999999 -4.5824455341403335e-15
    vertex 126.88647788841845 47.687407955410116 1.9999999999999931
    vertex 128.30998263648232 47.49999999999999 1.9999999999999931
  endloop
endfacet
facet normal 0.9238795325112873 -0.3826834323650885 -0.0
  outer loop
    vertex 123.54684291566791 55.749999999999986 -4.5824455341403335e-15
    vertex 122.99739059189245 54.42350474806385 1.9999999999999931
    vertex 122.99739059189245 54.42350474806385 -4.5824455341403335e-15
  endloop
endfacet
facet normal 0.9238795325112873 -0.3826834323650885 -0.0
  outer loop
    vertex 122.99739059189245 54.42350474806385 1.9999999999999931
    vertex 123.54684291566791 55.749999999999986 -4.5824455341403335e-15
    vertex 123.54684291566791 55.749999999999986 1.9999999999999931
  endloop
endfacet
facet normal -0.6087614290087227 0.7933533402912336 -0.0
  outer loop
    vertex 131.05998263648232 48.23686027918558 1.9999999999999931
    vertex 132.19906993300833 49.110912703473986 -4.5824455341403335e-15
    vertex 131.05998263648232 48.23686027918558 -4.5824455341403335e-15
  endloop
endfacet
facet normal -0.6087614290087227 0.7933533402912336 -0.0
  outer loop
    vertex 132.19906993300833 49.110912703473986 -4.5824455341403335e-15
    vertex 131.05998263648232 48.23686027918558 1.9999999999999931
    vertex 132.19906993300833 49.110912703473986 1.9999999999999931
  endloop
endfacet
facet normal 0.9914448613738107 -0.1305261922200501 -0.0
  outer loop
    vertex 107.99739059189245 10.423504748063861 -2.8199664825478975e-15
    vertex 107.80998263648233 9.0 1.999999999999995
    vertex 107.80998263648233 9.0 -2.8199664825478975e-15
  endloop
endfacet
facet normal 0.9914448613738107 -0.1305261922200501 -0.0
  outer loop
    vertex 107.80998263648233 9.0 1.999999999999995
    vertex 107.99739059189245 10.423504748063861 -2.8199664825478975e-15
    vertex 107.99739059189245 10.423504748063861 1.999999999999995
  endloop
endfacet
facet normal 0.13052619222004933 -0.9914448613738107 0.0
  outer loop
    vertex 128.30998263648232 58.49999999999999 1.9999999999999931
    vertex 126.88647788841845 58.31259204458987 -4.5824455341403335e-15
    vertex 128.30998263648232 58.49999999999999 -4.5824455341403335e-15
  endloop
endfacet
facet normal 0.13052619222004933 -0.9914448613738107 0.0
  outer loop
    vertex 126.88647788841845 58.31259204458987 -4.5824455341403335e-15
    vertex 128.30998263648232 58.49999999999999 1.9999999999999931
    vertex 126.88647788841845 58.31259204458987 1.9999999999999931
  endloop
endfacet
facet normal 0.9914448613738107 0.1305261922200497 -0.0
  outer loop
    vertex 107.80998263648233 9.0 -2.8199664825478975e-15
    vertex 107.99739059189245 7.5764952519361355 1.999999999999995
    vertex 107.99739059189245 7.5764952519361355 -2.8199664825478975e-15
  endloop
endfacet
facet normal 0.9914448613738107 0.1305261922200497 -0.0
  outer loop
    vertex 107.99739059189245 7.5764952519361355 1.999999999999995
    vertex 107.80998263648233 9.0 -2.8199664825478975e-15
    vertex 107.80998263648233 9.0 1.999999999999995
  endloop
endfacet
facet normal -0.3826834323650885 -0.9238795325112873 0.0
  outer loop
    vertex 131.05998263648232 57.76313972081441 1.9999999999999931
    vertex 129.73348738454618 58.31259204458987 -4.5824455341403335e-15
    vertex 131.05998263648232 57.76313972081441 -4.5824455341403335e-15
  endloop
endfacet
facet normal -0.3826834323650885 -0.9238795325112873 0.0
  outer loop
    vertex 129.73348738454618 58.31259204458987 -4.5824455341403335e-15
    vertex 131.05998263648232 57.76313972081441 1.9999999999999931
    vertex 129.73348738454618 58.31259204458987 1.9999999999999931
  endloop
endfacet
facet normal -0.9238795325112871 -0.3826834323650891 0.0
  outer loop
    vertex 118.07312235729673 11.750000000000002 1.999999999999995
    vertex 118.6225746810722 10.423504748063868 -2.8199664825478975e-15
    vertex 118.6225746810722 10.423504748063868 1.999999999999995
  endloop
endfacet
facet normal -0.9238795325112871 -0.3826834323650891 0.0
  outer loop
    vertex 118.6225746810722 10.423504748063868 -2.8199664825478975e-15
    vertex 118.07312235729673 11.750000000000002 1.999999999999995
    vertex 118.07312235729673 11.750000000000002 -2.8199664825478975e-15
  endloop
endfacet
facet normal -0.9914448613738107 -0.13052619222004946 0.0
  outer loop
    vertex 118.6225746810722 10.423504748063868 1.999999999999995
    vertex 118.80998263648232 9.0 -2.8199664825478975e-15
    vertex 118.80998263648232 9.0 1.999999999999995
  endloop
endfacet
facet normal -0.9914448613738107 -0.13052619222004946 0.0
  outer loop
    vertex 118.80998263648232 9.0 -2.8199664825478975e-15
    vertex 118.6225746810722 10.423504748063868 1.999999999999995
    vertex 118.6225746810722 10.423504748063868 -2.8199664825478975e-15
  endloop
endfacet
facet normal -0.9238795325112873 0.3826834323650888 0.0
  outer loop
    vertex 118.6225746810722 7.576495251936136 1.999999999999995
    vertex 118.07312235729673 6.250000000000001 -2.8199664825478975e-15
    vertex 118.07312235729673 6.250000000000001 1.999999999999995
  endloop
endfacet
facet normal -0.9238795325112873 0.3826834323650888 0.0
  outer loop
    vertex 118.07312235729673 6.250000000000001 -2.8199664825478975e-15
    vertex 118.6225746810722 7.576495251936136 1.999999999999995
    vertex 118.6225746810722 7.576495251936136 -2.8199664825478975e-15
  endloop
endfacet
facet normal 0.7933533402912406 -0.6087614290087137 -0.0
  outer loop
    vertex 109.4208953399563 12.88908729652601 -2.8199664825478975e-15
    vertex 108.54684291566791 11.749999999999998 1.999999999999995
    vertex 108.54684291566791 11.749999999999998 -2.8199664825478975e-15
  endloop
endfacet
facet normal 0.7933533402912406 -0.6087614290087137 -0.0
  outer loop
    vertex 108.54684291566791 11.749999999999998 1.999999999999995
    vertex 109.4208953399563 12.88908729652601 -2.8199664825478975e-15
    vertex 109.4208953399563 12.88908729652601 1.999999999999995
  endloop
endfacet
facet normal -0.1305261922200493 -0.9914448613738107 0.0
  outer loop
    vertex 129.73348738454618 58.31259204458987 1.9999999999999931
    vertex 128.30998263648232 58.49999999999999 -4.5824455341403335e-15
    vertex 129.73348738454618 58.31259204458987 -4.5824455341403335e-15
  endloop
endfacet
facet normal -0.1305261922200493 -0.9914448613738107 0.0
  outer loop
    vertex 128.30998263648232 58.49999999999999 -4.5824455341403335e-15
    vertex 129.73348738454618 58.31259204458987 1.9999999999999931
    vertex 128.30998263648232 58.49999999999999 1.9999999999999931
  endloop
endfacet
facet normal -0.3826834323650885 -0.9238795325112873 0.0
  outer loop
    vertex 116.05998263648233 13.763139720814415 1.999999999999995
    vertex 114.7334873845462 14.312592044589877 -2.8199664825478975e-15
    vertex 116.05998263648233 13.763139720814415 -2.8199664825478975e-15
  endloop
endfacet
facet normal -0.3826834323650885 -0.9238795325112873 0.0
  outer loop
    vertex 114.7334873845462 14.312592044589877 -2.8199664825478975e-15
    vertex 116.05998263648233 13.763139720814415 1.999999999999995
    vertex 114.7334873845462 14.312592044589877 1.999999999999995
  endloop
endfacet
facet normal -0.7933533402912406 0.6087614290087137 0.0
  outer loop
    vertex 118.07312235729673 6.250000000000001 1.999999999999995
    vertex 117.19906993300835 5.110912703473989 -2.8199664825478975e-15
    vertex 117.19906993300835 5.110912703473989 1.999999999999995
  endloop
endfacet
facet normal -0.7933533402912406 0.6087614290087137 0.0
  outer loop
    vertex 117.19906993300835 5.110912703473989 -2.8199664825478975e-15
    vertex 118.07312235729673 6.250000000000001 1.999999999999995
    vertex 118.07312235729673 6.250000000000001 -2.8199664825478975e-15
  endloop
endfacet
facet normal -0.3826834323650885 0.9238795325112873 -0.0
  outer loop
    vertex 129.73348738454618 47.687407955410116 1.9999999999999931
    vertex 131.05998263648232 48.23686027918558 -4.5824455341403335e-15
    vertex 129.73348738454618 47.687407955410116 -4.5824455341403335e-15
  endloop
endfacet
facet normal -0.3826834323650885 0.9238795325112873 -0.0
  outer loop
    vertex 131.05998263648232 48.23686027918558 -4.5824455341403335e-15
    vertex 129.73348738454618 47.687407955410116 1.9999999999999931
    vertex 131.05998263648232 48.23686027918558 1.9999999999999931
  endloop
endfacet
facet normal -0.7933533402912383 -0.6087614290087165 0.0
  outer loop
    vertex 132.19906993300833 56.889087296526 1.9999999999999931
    vertex 133.0731223572967 55.75 -4.5824455341403335e-15
    vertex 133.0731223572967 55.75 1.9999999999999931
  endloop
endfacet
facet normal -0.7933533402912383 -0.6087614290087165 0.0
  outer loop
    vertex 133.0731223572967 55.75 -4.5824455341403335e-15
    vertex 132.19906993300833 56.889087296526 1.9999999999999931
    vertex 132.19906993300833 56.889087296526 -4.5824455341403335e-15
  endloop
endfacet
facet normal -0.6087614290087278 -0.7933533402912296 0.0
  outer loop
    vertex 117.19906993300832 12.889087296526013 1.999999999999995
    vertex 116.05998263648233 13.763139720814415 -2.8199664825478975e-15
    vertex 117.19906993300832 12.889087296526013 -2.8199664825478975e-15
  endloop
endfacet
facet normal -0.6087614290087278 -0.7933533402912296 0.0
  outer loop
    vertex 116.05998263648233 13.763139720814415 -2.8199664825478975e-15
    vertex 117.19906993300832 12.889087296526013 1.999999999999995
    vertex 116.05998263648233 13.763139720814415 1.999999999999995
  endloop
endfacet
facet normal 1.0 -0.0 -0.0
  outer loop
    vertex 139.30998263648232 62.0 0.0
    vertex 139.30998263648232 0.0 1.9999999999999998
    vertex 139.30998263648232 0.0 0.0
  endloop
endfacet
facet normal 1.0 -0.0 -0.0
  outer loop
    vertex 139.30998263648232 0.0 1.9999999999999998
    vertex 139.30998263648232 62.0 0.0
    vertex 139.30998263648232 62.0 1.9999999999999998
  endloop
endfacet
facet normal 0.0 -1.0 0.0
  outer loop
    vertex 139.30998263648232 0.0 1.9999999999999998
    vertex 75.30998263648233 0.0 0.0
    vertex 139.30998263648232 0.0 0.0
  endloop
endfacet
facet normal 0.0 -1.0 0.0
  outer loop
    vertex 75.30998263648233 0.0 0.0
    vertex 139.30998263648232 0.0 1.9999999999999998
    vertex 75.30998263648233 0.0 1.9999999999999998
  endloop
endfacet
facet normal 0.9238795325112873 0.3826834323650885 -0.0
  outer loop
    vertex 107.99739059189245 7.5764952519361355 -2.8199664825478975e-15
    vertex 108.54684291566791 6.249999999999998 1.999999999999995
    vertex 108.54684291566791 6.249999999999998 -2.8199664825478975e-15
  endloop
endfacet
facet normal 0.9238795325112873 0.3826834323650885 -0.0
  outer loop
    vertex 108.54684291566791 6.249999999999998 1.999999999999995
    vertex 107.99739059189245 7.5764952519361355 -2.8199664825478975e-15
    vertex 107.99739059189245 7.5764952519361355 1.999999999999995
  endloop
endfacet
facet normal -0.6087614290087193 0.7933533402912363 -0.0
  outer loop
    vertex 116.05998263648233 4.2368602791855885 1.999999999999995
    vertex 117.19906993300835 5.110912703473989 -2.8199664825478975e-15
    vertex 116.05998263648233 4.2368602791855885 -2.8199664825478975e-15
  endloop
endfacet
facet normal -0.6087614290087193 0.7933533402912363 -0.0
  outer loop
    vertex 117.19906993300835 5.110912703473989 -2.8199664825478975e-15
    vertex 116.05998263648233 4.2368602791855885 1.999999999999995
    vertex 117.19906993300835 5.110912703473989 1.999999999999995
  endloop
endfacet
facet normal 0.7933533402912397 0.6087614290087147 -0.0
  outer loop
    vertex 108.54684291566791 6.249999999999998 -2.8199664825478975e-15
    vertex 109.4208953399563 5.110912703473989 1.999999999999995
    vertex 109.4208953399563 5.110912703473989 -2.8199664825478975e-15
  endloop
endfacet
facet normal 0.7933533402912397 0.6087614290087147 -0.0
  outer loop
    vertex 109.4208953399563 5.110912703473989 1.999999999999995
    vertex 108.54684291566791 6.249999999999998 -2.8199664825478975e-15
    vertex 108.54684291566791 6.249999999999998 1.999999999999995
  endloop
endfacet
endsolid esp32 room sensor CAM AIR
